<?xml version="1.0" standalone="no"?>
<!DOCTYPE svg PUBLIC "-//W3C//DTD SVG 20010904//EN"
 "http://www.w3.org/TR/2001/REC-SVG-20010904/DTD/svg10.dtd">
<svg version="1.0" xmlns="http://www.w3.org/2000/svg"
 width="1408.000000pt" height="1024.000000pt" viewBox="0 0 1408.000000 1024.000000"
 preserveAspectRatio="xMidYMid meet">

<g transform="translate(0.000000,1024.000000) scale(0.100000,-0.100000)"
fill="#000000" stroke="none">
<path d="M0 10083 l1 -158 64 -30 c36 -16 65 -34 65 -40 0 -11 -28 -38 -51
-49 -8 -3 -4 -4 9 -2 12 2 22 0 22 -5 0 -5 5 -9 11 -9 6 0 9 6 6 14 -7 17 18
41 32 32 5 -3 11 -2 13 3 5 14 121 72 127 63 4 -4 26 -9 51 -11 25 -2 47 -5
49 -7 2 -2 10 1 16 6 7 6 26 12 43 13 16 1 28 5 26 9 -9 14 20 20 30 7 6 -8
21 -14 34 -13 12 1 22 -3 22 -7 0 -5 -8 -9 -17 -9 -15 -1 -14 -4 7 -22 16 -14
19 -19 8 -15 -11 4 -18 2 -18 -7 0 -7 -7 -13 -15 -13 -8 0 -11 5 -8 10 13 21
11 56 -2 50 -8 -2 -11 -12 -7 -21 5 -14 3 -15 -9 -5 -22 18 -54 9 -55 -15 -1
-12 2 -22 6 -22 15 0 21 -33 8 -42 -10 -6 -8 -8 5 -8 9 0 17 -3 17 -7 0 -5 16
-9 35 -9 38 -2 55 -11 40 -22 -14 -10 -18 -42 -5 -43 5 -1 15 -2 21 -3 6 0 17
-9 24 -19 8 -12 14 -14 17 -6 3 8 9 7 20 -4 11 -12 18 -13 27 -4 8 8 11 8 11
-2 0 -7 5 -9 10 -6 6 3 10 1 10 -5 0 -6 5 -8 11 -5 6 4 13 -2 16 -13 6 -25 42
-36 62 -19 12 10 14 9 8 -5 -3 -10 -2 -18 3 -18 6 0 10 4 10 8 0 5 7 9 15 9
11 0 12 -4 4 -13 -8 -9 -5 -11 10 -7 12 3 18 9 15 14 -3 5 2 6 11 3 9 -4 13
-9 10 -12 -2 -3 4 -11 15 -19 21 -15 29 -39 8 -27 -7 4 -8 3 -4 -5 6 -9 11 -9
21 -1 11 9 19 7 35 -8 22 -20 65 -19 53 2 -3 6 2 4 13 -5 14 -12 34 -16 77
-13 48 3 57 1 58 -14 0 -9 3 -12 5 -5 3 7 12 9 20 6 8 -3 24 3 36 13 12 11 18
14 15 7 -4 -6 -3 -14 3 -18 5 -3 10 0 10 8 0 7 7 14 15 14 8 0 12 -4 9 -9 -5
-8 9 -12 33 -9 6 1 15 -4 19 -10 4 -8 3 -9 -4 -5 -7 4 -12 1 -12 -8 0 -21 27
-10 33 14 3 10 0 23 -7 30 -8 8 -4 9 17 1 26 -10 32 -6 28 21 0 4 17 6 39 6
27 0 38 -4 33 -12 -3 -6 2 -3 12 6 15 14 16 20 6 32 -7 8 -8 17 -3 20 6 3 12
-1 16 -9 3 -8 10 -15 16 -15 6 0 8 6 4 13 -6 10 -4 10 7 0 16 -15 33 -17 24
-3 -3 5 0 7 7 5 8 -3 22 1 33 10 19 14 18 15 -15 10 -32 -4 -33 -4 -14 8 12 6
19 18 17 25 -3 6 0 12 6 12 6 0 11 -7 11 -15 0 -13 4 -14 21 -5 19 11 20 10 9
-10 -14 -27 -8 -34 20 -25 15 5 19 10 12 17 -6 6 -9 16 -6 22 10 27 -69 40
-87 14 -3 -5 -12 -2 -19 7 -8 10 -9 15 -1 15 6 0 11 11 11 25 0 25 3 26 60 29
22 1 25 5 23 39 -1 32 1 36 13 26 10 -8 18 -9 25 -2 6 6 1 14 -16 21 -21 10
-27 9 -31 -3 -3 -8 -3 -18 0 -23 3 -5 -7 -15 -21 -23 -21 -11 -27 -11 -30 -1
-4 9 -14 6 -36 -10 -19 -13 -27 -16 -19 -6 10 13 10 19 -2 31 -8 8 -12 18 -8
21 3 4 -1 4 -11 0 -20 -7 -21 -16 -6 -31 14 -14 6 -29 -19 -35 -12 -4 -18 1
-19 13 -1 13 3 16 14 12 13 -5 15 -2 10 11 -4 10 -7 20 -7 23 0 2 -7 -3 -16
-11 -17 -18 -39 -22 -28 -5 4 6 -1 9 -13 7 -11 -2 -20 2 -21 7 0 6 6 9 14 9
17 -2 17 1 3 28 -8 14 -8 23 0 31 8 8 11 3 11 -17 0 -18 4 -26 13 -23 6 2 11
13 10 25 -2 12 5 22 17 25 17 4 18 2 9 -14 -8 -16 -6 -19 11 -20 11 -1 26 -2
33 -3 6 -1 15 -5 19 -11 5 -6 8 -6 8 2 0 6 -6 15 -12 19 -9 6 -5 10 12 15 25
7 25 7 -3 8 l-28 1 21 23 c12 12 29 22 38 22 11 0 16 7 14 18 -2 9 1 16 5 15
18 -5 52 14 58 32 5 16 10 17 31 10 13 -5 24 -6 24 -1 0 12 90 19 117 10 13
-5 22 -16 21 -26 -4 -46 1 -53 36 -53 28 0 41 7 65 37 17 21 31 33 31 28 0
-11 305 -11 600 1 235 9 246 9 300 18 25 4 97 9 160 11 63 2 126 7 140 10 14
4 63 11 110 16 47 5 117 14 155 20 39 6 95 14 125 19 75 11 256 12 304 1 22
-6 51 -22 66 -40 15 -16 31 -27 34 -24 3 4 6 2 6 -3 0 -16 40 -55 51 -49 5 4
19 -10 30 -30 17 -28 24 -33 35 -24 10 8 14 8 15 0 1 -6 2 -16 3 -23 0 -6 7
-13 15 -16 8 -3 11 0 7 6 -11 18 26 6 72 -24 23 -15 48 -29 55 -31 6 -1 30 -7
52 -12 22 -6 64 -15 93 -22 28 -6 52 -16 52 -21 0 -5 -6 -6 -12 -2 -10 5 -10
4 -1 -6 10 -11 15 -11 28 0 13 11 15 9 15 -9 0 -12 4 -20 9 -16 6 3 15 -3 20
-14 14 -25 14 -44 1 -36 -5 3 -10 1 -10 -5 0 -7 9 -14 20 -17 29 -8 25 -22
-12 -38 -19 -8 -26 -14 -15 -15 9 0 17 -4 17 -10 0 -5 4 -9 9 -7 5 1 17 -7 25
-18 l16 -20 -7 20 c-6 19 -6 19 14 2 20 -17 41 -25 92 -32 27 -4 59 -35 53
-53 -2 -6 1 -12 7 -12 6 0 11 4 11 8 0 5 6 9 14 9 8 0 14 -5 13 -11 -1 -5 15
-10 36 -10 20 0 37 -4 37 -9 0 -4 8 -6 18 -3 11 4 28 -2 41 -13 22 -19 58 -18
74 3 6 7 7 4 3 -6 -5 -18 7 -24 64 -31 30 -3 52 -16 46 -25 -2 -4 2 -16 10
-27 14 -19 15 -19 21 3 4 19 8 20 20 10 12 -10 17 -9 27 3 20 27 86 47 86 26
0 -8 3 -8 9 2 5 8 16 11 26 8 9 -4 13 -11 10 -17 -3 -5 0 -10 8 -10 20 0 68
-50 60 -64 -3 -6 -3 -8 2 -4 4 4 15 3 25 -2 13 -7 22 -4 35 10 10 11 22 17 28
13 6 -4 7 -1 3 6 -5 8 0 14 13 18 12 3 21 9 21 14 0 5 3 8 8 8 19 -3 33 2 28
10 -3 5 2 8 12 7 9 0 16 5 15 12 -2 6 2 12 7 12 6 0 10 -4 10 -8 0 -5 6 -9 13
-9 8 0 13 9 11 23 -2 18 3 22 19 21 12 0 25 -6 29 -12 5 -5 8 -1 8 10 0 22 23
46 54 58 16 6 17 5 6 -8 -10 -12 -9 -15 6 -15 15 0 16 -2 5 -9 -11 -7 -10 -10
5 -14 16 -4 17 -5 2 -6 -31 -2 -19 -20 11 -19 17 1 29 6 28 12 -1 6 6 10 15
10 10 -1 15 2 12 7 -8 13 10 11 24 -3 9 -9 12 -9 12 1 0 8 6 11 16 7 10 -4 13
-2 8 6 -5 8 -2 9 10 5 13 -5 17 -3 13 5 -3 9 9 14 40 15 26 1 61 12 86 27 23
14 39 26 35 26 -4 0 4 12 18 27 22 24 25 35 23 92 -2 36 -7 71 -11 78 -5 7 -4
14 3 18 6 4 14 2 18 -4 5 -8 13 -6 27 5 10 8 13 13 6 9 -15 -8 -52 3 -52 15 0
5 9 11 19 15 11 3 29 26 41 50 12 25 26 45 31 45 6 0 7 5 4 10 -3 5 -1 10 4
10 6 0 11 7 11 15 0 13 18 20 42 16 5 0 7 2 7 7 -3 19 2 23 16 12 14 -12 14
-15 -1 -31 -10 -11 -13 -19 -9 -19 4 0 0 -9 -9 -19 -17 -19 -17 -19 2 -14 11
2 25 14 31 26 10 19 11 16 6 -18 -5 -38 -5 -39 11 -20 l17 20 -8 -20 c-4 -11
-10 -31 -12 -45 -4 -22 -2 -21 18 10 13 19 22 44 21 55 -1 11 4 6 13 -14 10
-22 20 -31 30 -27 8 3 15 0 15 -7 0 -8 4 -7 10 3 7 12 10 11 17 -5 4 -11 16
-21 25 -21 10 -1 15 2 12 7 -9 15 6 10 23 -6 9 -10 23 -13 36 -9 15 5 19 3 14
-9 -3 -9 0 -20 7 -26 10 -8 12 -4 11 18 -1 21 2 28 12 24 7 -3 13 0 13 5 0 7
10 8 29 2 16 -4 32 -5 36 -2 13 13 85 7 90 -7 5 -13 19 -8 21 7 1 19 28 92 33
93 3 0 14 2 24 4 14 3 17 -1 12 -13 -5 -14 -4 -15 6 -4 18 17 30 15 23 -3 -5
-11 2 -15 27 -16 19 -1 40 -1 47 0 6 1 12 -3 12 -9 0 -6 8 -14 18 -17 9 -4 26
-15 37 -24 11 -10 34 -31 52 -47 40 -37 76 -51 133 -53 75 -3 86 0 100 26 8
14 24 28 37 31 13 4 23 11 23 16 0 6 9 8 20 5 11 -3 20 -1 20 4 0 5 6 9 14 9
7 0 19 7 26 15 7 9 20 15 29 14 38 -3 51 2 51 20 0 13 9 21 29 26 25 5 42 23
45 47 2 11 16 22 16 12 0 -5 9 -10 21 -11 26 -2 50 -32 45 -56 -3 -11 -2 -17
0 -14 7 6 62 -46 58 -54 -2 -3 3 -6 12 -6 8 0 12 7 9 16 -2 9 0 23 5 31 8 12
10 10 11 -10 1 -14 2 -34 1 -45 -1 -17 1 -16 10 5 7 14 13 27 14 28 4 6 61
-60 75 -85 21 -38 129 -143 148 -143 10 0 24 7 31 15 9 11 23 13 51 9 24 -4
44 -2 53 5 14 12 61 28 106 37 14 3 30 11 36 19 8 11 14 11 22 3 7 -7 16 -8
24 -2 7 6 25 10 41 9 15 0 27 3 27 8 0 4 5 5 10 2 15 -9 98 46 106 70 3 11 7
23 9 28 1 4 3 11 4 16 1 8 57 40 155 89 30 15 80 28 125 33 42 5 159 18 261
29 102 11 208 22 237 25 44 5 55 3 72 -14 12 -12 21 -31 21 -43 0 -12 7 -29
16 -39 15 -17 15 -24 -1 -89 -22 -91 -17 -105 36 -96 81 13 171 75 235 161 46
63 125 123 163 125 8 0 23 8 33 17 22 20 16 19 173 34 219 21 749 -9 855 -50
54 -20 80 -42 80 -67 0 -6 8 -18 17 -25 15 -13 16 -12 11 9 -4 12 -4 22 -1 22
8 0 42 -42 79 -97 35 -53 95 -95 142 -100 13 -1 29 -6 35 -12 13 -10 86 -27
101 -23 5 2 23 -2 40 -8 34 -12 337 -35 433 -33 38 1 71 8 87 18 13 9 50 19
81 22 60 6 274 -13 311 -27 15 -6 31 -3 53 11 17 10 37 16 45 13 21 -8 146 52
146 71 0 20 26 30 43 17 16 -14 97 -3 97 13 0 12 41 35 63 35 7 0 27 13 46 29
41 35 75 43 149 34 46 -5 52 -8 38 -18 -9 -7 -16 -15 -16 -19 0 -12 58 -6 63
7 3 9 9 9 27 -1 20 -12 24 -10 51 20 80 88 105 109 159 130 35 13 61 30 63 40
3 12 11 16 21 12 9 -3 16 -1 16 5 0 6 7 11 15 11 8 0 26 12 40 26 20 20 29 23
40 14 8 -6 11 -19 8 -27 -5 -12 -2 -15 10 -10 10 4 16 2 14 -5 -1 -6 18 -16
41 -20 l44 -10 -7 -84 c-7 -78 -6 -84 11 -84 11 0 25 -9 32 -20 10 -16 16 -18
32 -10 10 5 21 6 24 2 3 -5 -11 -16 -30 -26 -40 -19 -40 -35 1 -55 21 -10 38
-11 69 -4 48 12 139 45 146 54 3 3 12 9 20 13 31 15 61 33 81 52 12 10 29 19
38 20 28 1 81 28 81 40 0 7 10 14 23 16 21 3 22 7 25 121 l3 117 -7041 0
-7040 0 0 -157z m664 -134 c-6 -11 -24 -2 -24 11 0 5 7 7 15 4 8 -4 12 -10 9
-15z m846 -29 c0 -5 -7 -10 -16 -10 -8 0 -12 5 -9 10 3 6 10 10 16 10 5 0 9
-4 9 -10z m7985 -12 c32 -15 35 -41 3 -29 -28 10 -31 11 -65 11 -29 0 -22 15
12 23 11 3 21 5 22 6 1 0 14 -4 28 -11z m3130 -19 c4 -6 13 -8 21 -5 8 3 14 1
14 -4 0 -6 -7 -10 -15 -10 -9 0 -30 -7 -46 -16 -40 -20 -49 -10 -19 21 26 27
35 30 45 14z m-12013 -29 c2 -6 13 -12 25 -13 16 -1 19 -5 12 -13 -12 -15 5
-28 24 -19 6 4 3 -1 -7 -9 -11 -9 -29 -15 -40 -15 -17 1 -18 2 -3 6 9 2 17 9
17 14 0 6 -8 9 -17 7 -12 -2 -17 3 -15 15 2 9 -2 17 -8 17 -5 0 -10 5 -10 10
0 13 17 13 22 0z m8858 -15 c0 -8 -4 -15 -8 -15 -5 0 -9 7 -9 15 0 8 4 15 9
15 4 0 8 -7 8 -15z m20 -30 c-7 -8 -22 -14 -34 -14 -20 1 -20 2 -1 6 11 3 24
12 28 20 5 8 11 12 14 9 3 -3 0 -12 -7 -21z m-8974 -17 c4 -7 3 -8 -4 -4 -7 4
-12 2 -12 -5 0 -7 -3 -10 -6 -6 -6 5 3 27 11 27 2 0 7 -5 11 -12z m94 -62 c0
-2 -7 -7 -16 -10 -8 -3 -12 -2 -9 4 6 10 25 14 25 6z m3928 -108 c-3 -7 -15
-14 -29 -16 -24 -4 -24 -3 -4 12 24 19 38 20 33 4z m-3234 -79 c-4 -7 -44 0
-44 7 0 2 11 3 24 2 14 -1 23 -5 20 -9z m4640 -20 c-8 -14 -24 -10 -24 6 0 9
6 12 15 9 8 -4 12 -10 9 -15z m-219 -9 c-3 -5 -12 -10 -18 -10 -7 0 -6 4 3 10
19 12 23 12 15 0z m25 -30 c0 -5 -4 -10 -10 -10 -5 0 -10 5 -10 10 0 6 5 10
10 10 6 0 10 -4 10 -10z m-640 -60 c0 -5 -8 -10 -17 -10 -15 0 -16 2 -3 10 19
12 20 12 20 0z"/>
<path d="M6176 9935 c4 -8 8 -15 10 -15 2 0 4 7 4 15 0 8 -4 15 -10 15 -5 0
-7 -7 -4 -15z"/>
<path d="M1530 9889 c0 -5 5 -7 10 -4 6 3 10 8 10 11 0 2 -4 4 -10 4 -5 0 -10
-5 -10 -11z"/>
<path d="M10952 9878 c5 -15 50 -39 58 -32 5 6 -40 43 -53 44 -5 0 -7 -6 -5
-12z"/>
<path d="M16 9867 c-11 -8 -17 -18 -15 -23 2 -5 14 1 26 14 24 24 17 30 -11 9z"/>
<path d="M20 9838 c0 -18 18 -34 28 -24 3 4 -2 14 -11 23 -16 16 -17 16 -17 1z"/>
<path d="M1570 9835 c0 -5 5 -17 10 -25 5 -8 10 -10 10 -5 0 6 -5 17 -10 25
-5 8 -10 11 -10 5z"/>
<path d="M7380 9828 c0 -20 -11 -23 -26 -8 -7 7 -17 3 -30 -11 -10 -13 -13
-19 -6 -15 7 4 18 3 25 -2 17 -15 58 20 46 39 -7 11 -9 11 -9 -3z"/>
<path d="M6706 9795 c-3 -8 -1 -15 4 -15 6 0 10 7 10 15 0 8 -2 15 -4 15 -2 0
-6 -7 -10 -15z"/>
<path d="M512 9742 c2 -9 10 -17 18 -19 13 -4 13 -3 0 6 -10 7 -11 11 -2 11 6
0 12 4 12 8 0 5 -7 9 -15 9 -9 0 -15 -7 -13 -15z"/>
<path d="M580 9660 c0 -5 5 -10 11 -10 5 0 7 5 4 10 -3 6 -8 10 -11 10 -2 0
-4 -4 -4 -10z"/>
<path d="M1660 9590 c0 -6 7 -10 15 -10 8 0 15 2 15 4 0 2 -7 6 -15 10 -8 3
-15 1 -15 -4z"/>
<path d="M1568 9578 c9 -9 15 -9 24 0 9 9 7 12 -12 12 -19 0 -21 -3 -12 -12z"/>
<path d="M1626 9582 c6 -4 13 -15 17 -24 3 -10 15 -18 26 -18 19 0 18 2 -5 25
-14 14 -30 25 -37 25 -8 0 -9 -3 -1 -8z"/>
<path d="M1651 9452 c-6 -11 -8 -22 -5 -25 9 -9 42 5 49 20 5 14 3 14 -12 2
-9 -8 -14 -9 -10 -2 4 6 3 14 -2 18 -6 3 -15 -3 -20 -13z"/>
<path d="M5513 9350 c-46 -27 -41 -34 5 -8 46 27 48 28 36 28 -5 0 -24 -9 -41
-20z"/>
<path d="M6073 9133 c-15 -5 -17 -23 -4 -23 5 0 11 7 15 15 3 8 4 15 3 14 -1
0 -8 -3 -14 -6z"/>
<path d="M3 9015 c-8 -23 0 -25 21 -4 18 17 18 19 2 19 -9 0 -19 -7 -23 -15z"/>
<path d="M0 8959 c0 -5 5 -7 10 -4 5 3 10 8 10 11 0 2 -4 4 -10 4 -5 0 -10 -5
-10 -11z"/>
<path d="M5301 8901 c-11 -7 -10 -14 5 -40 24 -41 50 -41 57 2 2 17 3 35 0 40
-6 10 -45 9 -62 -2z"/>
<path d="M0 8843 c0 -4 5 -15 10 -23 8 -13 10 -13 10 2 0 9 -4 20 -10 23 -5 3
-10 3 -10 -2z"/>
<path d="M4325 8789 c-4 -6 -5 -13 -2 -16 7 -7 27 6 27 18 0 12 -17 12 -25 -2z"/>
<path d="M7 8703 c-4 -3 -7 -36 -7 -73 0 -52 3 -67 15 -67 11 0 12 3 3 14 -9
11 -8 13 3 11 18 -4 34 -19 41 -39 9 -22 56 -30 74 -12 13 13 18 10 16 -8 -1
-4 8 -5 19 -2 30 8 19 37 -15 41 -16 2 -32 -2 -36 -8 -5 -8 -10 -9 -14 -2 -5
8 38 32 66 36 15 2 20 16 5 16 -8 0 -17 6 -20 13 -2 6 -3 4 -2 -5 2 -10 -1
-19 -6 -19 -26 -5 -34 -3 -34 6 0 6 -10 21 -23 35 -15 16 -22 19 -22 9 0 -12
-2 -12 -9 0 -5 8 -14 10 -21 6 -8 -5 -11 -4 -7 2 4 6 0 14 -9 17 -9 4 -14 13
-10 21 6 16 3 19 -7 8z m83 -124 c0 -5 -4 -9 -10 -9 -5 0 -10 7 -10 16 0 8 5
12 10 9 6 -3 10 -10 10 -16z"/>
<path d="M10805 8640 c-3 -5 -15 -10 -26 -10 -10 0 -19 -3 -19 -8 0 -14 -83
-43 -106 -38 -13 4 -26 1 -29 -4 -4 -6 -12 -9 -18 -8 -13 3 -78 -39 -89 -58
-6 -9 -17 -4 -39 17 -17 16 -41 29 -54 29 -42 0 -137 -85 -177 -159 -9 -17
-27 -36 -40 -41 -83 -35 -215 -166 -284 -280 -15 -25 -39 -59 -54 -76 -15 -18
-39 -56 -53 -86 -25 -53 -29 -71 -42 -228 -4 -41 -11 -90 -17 -108 -14 -47 8
-255 33 -302 10 -19 36 -57 58 -85 22 -27 52 -66 67 -85 32 -41 88 -85 203
-157 87 -55 104 -62 95 -39 -3 7 2 16 10 19 12 5 16 0 16 -22 0 -25 7 -31 61
-55 33 -14 62 -26 65 -26 2 0 4 12 4 26 0 20 3 24 13 17 6 -6 24 -13 40 -17
21 -5 27 -13 29 -34 1 -15 2 -36 3 -47 1 -13 -10 -26 -29 -37 l-31 -16 28 -11
c16 -6 33 -11 38 -11 9 0 10 -2 14 -35 7 -62 39 -85 120 -85 17 0 36 -5 42
-11 18 -18 40 -3 48 31 6 29 9 31 48 28 36 -3 42 0 45 18 2 12 -5 30 -15 40
-10 9 -18 20 -19 23 0 3 -6 18 -13 32 -14 29 -121 86 -139 75 -6 -4 -16 3 -22
14 -12 22 3 28 30 10 9 -5 19 -5 27 2 9 7 13 7 13 -1 0 -6 6 -11 14 -11 9 0
12 8 9 24 -4 17 0 26 14 30 15 5 18 13 15 36 -2 17 1 37 8 44 9 12 7 19 -9 35
-12 12 -21 26 -21 31 0 6 -5 10 -11 10 -7 0 -9 -9 -6 -21 6 -23 -1 -49 -13
-49 -14 0 -23 62 -11 70 7 3 9 14 5 23 -7 19 -20 22 -29 7 -3 -5 -14 -10 -24
-10 -10 0 -23 -10 -28 -23 -6 -13 -26 -31 -44 -40 -39 -19 -62 -10 -84 33 -8
16 -26 41 -40 56 -19 20 -22 30 -13 35 26 16 -5 22 -107 22 -109 0 -141 11
-110 37 13 11 14 10 10 -1 -4 -11 8 -15 55 -16 33 0 60 3 60 8 0 4 22 11 50
15 27 4 47 10 44 15 -3 5 4 9 16 9 19 0 100 69 100 85 0 4 -16 4 -36 0 -24 -4
-34 -3 -30 4 4 6 22 13 41 17 35 6 39 12 47 69 2 11 12 24 23 30 11 5 20 17
20 25 0 9 7 14 18 12 10 -2 17 3 17 12 0 8 6 16 12 18 18 6 38 -16 38 -41 0
-35 20 -23 40 24 24 56 38 151 21 141 -20 -13 -47 3 -79 49 -23 33 -38 45 -56
45 -14 0 -27 4 -30 9 -8 12 -55 20 -61 11 -3 -4 -17 -11 -31 -14 -44 -11 -113
-65 -132 -103 l-19 -35 -21 37 c-12 20 -26 35 -30 33 -4 -2 -32 -12 -62 -23
-38 -14 -73 -39 -118 -82 -60 -58 -90 -82 -63 -49 7 8 14 24 16 36 2 13 11 46
19 74 20 73 21 185 1 192 -21 8 -19 26 3 22 15 -2 36 18 186 182 32 35 36 50
27 113 l-7 56 35 15 c20 9 48 20 62 25 18 6 34 27 53 68 57 124 60 128 84 125
12 -2 22 2 22 7 0 6 9 11 19 11 24 0 36 17 24 33 -15 19 -13 58 2 63 20 8 55
-14 55 -35 0 -12 7 -18 18 -17 14 1 17 -7 17 -46 0 -25 4 -50 9 -55 5 -4 6 -3
2 5 -4 6 -3 12 2 12 15 0 33 -26 35 -49 1 -12 8 -21 17 -22 25 0 63 -56 57
-84 -5 -31 5 -39 71 -55 77 -18 82 -14 82 75 0 65 -4 83 -30 132 -16 31 -30
61 -30 67 0 6 11 35 25 65 l25 53 -32 49 c-30 47 -50 60 -63 39z m-607 -342
c-11 -10 -18 -18 -14 -18 14 0 -51 -49 -78 -59 -33 -13 -34 0 -1 25 14 10 25
23 25 28 0 4 -7 3 -15 -4 -23 -19 -28 -6 -5 15 14 13 23 15 32 7 9 -7 17 -6
25 3 10 11 10 15 0 18 -7 3 3 5 20 4 l33 0 -22 -19z m-4 -79 c-10 -11 -28 -26
-39 -31 -12 -7 -7 3 14 26 36 37 59 42 25 5z m283 -535 c-3 -3 -12 -4 -19 -1
-8 3 -5 6 6 6 11 1 17 -2 13 -5z m-77 -54 c-37 -25 -50 -31 -50 -20 0 6 10 15
23 20 30 12 45 12 27 0z m-133 -376 c-3 -3 -12 -4 -19 -1 -8 3 -5 6 6 6 11 1
17 -2 13 -5z m393 -330 c0 -8 -5 -12 -10 -9 -6 4 -8 11 -5 16 9 14 15 11 15
-7z m-108 -96 c23 -16 26 -24 21 -48 -4 -23 0 -34 17 -48 20 -16 21 -19 6 -31
-20 -17 -21 -51 -1 -51 8 0 15 -3 15 -6 0 -10 -25 -29 -43 -32 -14 -3 -17 1
-13 16 4 11 -2 28 -14 42 -24 27 -25 34 -6 49 16 14 8 55 -18 93 -9 12 -16 28
-16 36 0 14 7 11 52 -20z"/>
<path d="M14044 8564 c-14 -20 -15 -27 -4 -37 10 -9 11 -9 5 1 -5 9 -1 12 11
10 14 -2 20 4 22 25 4 34 -12 35 -34 1z"/>
<path d="M0 8535 c0 -6 6 -17 13 -24 10 -11 10 -13 0 -7 -9 5 -13 -2 -13 -25
0 -27 2 -30 15 -19 12 10 15 10 15 -3 0 -8 -5 -17 -12 -19 -16 -6 -2 -55 16
-55 21 0 29 26 11 33 -11 5 -12 11 -5 24 14 25 6 86 -11 82 -10 -3 -10 0 0 12
10 12 9 15 -8 13 -12 -1 -21 -6 -21 -12z"/>
<path d="M9637 8516 c-6 -16 2 -28 14 -20 12 7 11 34 0 34 -5 0 -11 -6 -14
-14z"/>
<path d="M11387 8506 c-4 -10 -5 -21 -2 -24 9 -9 17 6 13 25 -3 17 -4 17 -11
-1z"/>
<path d="M9672 8474 c-23 -18 -32 -34 -32 -54 0 -16 -5 -32 -11 -36 -22 -13 8
-25 34 -13 27 12 35 24 47 75 11 48 -1 57 -38 28z"/>
<path d="M11338 8462 c-21 -13 -27 -26 -31 -62 -4 -40 -1 -48 26 -72 51 -46
57 -39 55 59 -2 47 -7 87 -13 89 -5 1 -22 -5 -37 -14z"/>
<path d="M4663 8450 c-20 -16 -21 -30 -2 -30 9 0 33 40 27 45 -2 2 -13 -5 -25
-15z"/>
<path d="M14017 8453 c-13 -12 -7 -33 9 -33 14 0 14 -3 4 -15 -13 -16 -3 -20
23 -9 13 5 13 9 -1 35 -17 30 -24 34 -35 22z"/>
<path d="M14060 8441 c0 -6 4 -13 10 -16 6 -3 7 1 4 9 -7 18 -14 21 -14 7z"/>
<path d="M52 8359 c-15 -23 -15 -29 -2 -29 6 0 10 6 10 14 0 8 8 16 18 18 15
3 15 4 1 10 -9 4 -20 -1 -27 -13z"/>
<path d="M6 8315 c4 -8 9 -15 13 -15 4 0 8 7 8 15 0 8 -6 15 -13 15 -8 0 -11
-6 -8 -15z"/>
<path d="M55 8300 c3 -5 11 -10 16 -10 6 0 7 5 4 10 -3 6 -11 10 -16 10 -6 0
-7 -4 -4 -10z"/>
<path d="M13765 8220 c-3 -5 -1 -10 4 -10 6 0 11 5 11 10 0 6 -2 10 -4 10 -3
0 -8 -4 -11 -10z"/>
<path d="M13785 8198 c-16 -18 44 -69 66 -57 21 11 14 54 -9 55 -9 1 -24 4
-32 7 -8 3 -20 1 -25 -5z"/>
<path d="M13950 8155 c7 -9 15 -13 17 -11 7 7 -7 26 -19 26 -6 0 -6 -6 2 -15z"/>
<path d="M13760 7940 c0 -11 4 -20 9 -20 5 0 7 9 4 20 -3 11 -7 20 -9 20 -2 0
-4 -9 -4 -20z"/>
<path d="M13950 7910 c0 -5 5 -10 11 -10 5 0 7 5 4 10 -3 6 -8 10 -11 10 -2 0
-4 -4 -4 -10z"/>
<path d="M10225 7900 c-3 -5 -1 -10 4 -10 6 0 11 5 11 10 0 6 -2 10 -4 10 -3
0 -8 -4 -11 -10z"/>
<path d="M13760 7889 c-8 -12 -28 -27 -45 -35 -16 -7 -25 -13 -18 -14 7 0 10
-6 7 -14 -3 -8 -1 -17 5 -21 6 -3 11 -11 11 -16 0 -6 -5 -7 -11 -3 -7 4 -7 -1
1 -16 7 -13 17 -19 26 -16 8 3 13 2 10 -3 -3 -5 1 -12 10 -15 12 -4 15 -2 10
9 -5 14 9 20 41 16 6 -1 15 3 18 9 11 17 13 60 4 54 -13 -8 -11 10 2 23 9 9 5
18 -14 37 -32 31 -38 32 -57 5z"/>
<path d="M0 7170 c0 -396 2 -720 4 -720 2 0 10 8 17 17 10 11 10 14 2 9 -8 -4
-13 -1 -13 8 0 9 9 16 20 16 22 0 27 15 7 24 -6 3 1 2 17 -1 20 -4 27 -3 22 6
-4 6 -3 11 1 11 5 0 13 20 19 45 10 43 9 45 -10 40 -18 -5 -16 -2 8 20 15 14
26 29 22 32 -3 3 10 17 29 30 19 13 35 29 35 35 0 6 11 8 30 4 19 -3 29 -2 25
4 -8 14 8 13 22 -1 14 -14 36 -1 29 17 -3 9 7 22 27 35 22 14 26 19 12 17 -16
-2 -20 3 -20 26 -1 22 1 26 9 14 8 -13 11 -13 28 1 10 8 18 22 18 29 0 12 -3
12 -15 2 -13 -11 -14 -10 -9 4 8 20 14 20 42 0 28 -19 44 -10 17 9 -16 13 -16
14 -1 20 9 4 16 1 17 -6 1 -7 7 15 15 48 16 70 10 122 -17 151 -11 11 -22 31
-24 44 -5 28 -16 39 -22 23 -7 -18 -18 -16 -50 10 -37 31 -64 41 -56 21 3 -7
0 -14 -6 -14 -6 0 -11 9 -11 19 0 13 -8 21 -22 23 -17 2 -24 11 -26 31 -2 15
1 27 7 27 6 0 11 9 11 20 0 23 -4 24 -30 10 -13 -7 -21 -7 -25 0 -3 5 2 10 12
11 16 0 16 1 -2 9 -11 5 -15 9 -8 9 7 1 10 8 6 18 -5 12 -3 14 8 8 12 -7 12
-6 1 7 -7 9 -14 40 -15 70 -2 44 -8 60 -30 82 -22 22 -26 31 -16 42 10 12 9
13 -5 8 -12 -5 -16 -1 -14 17 1 13 -2 34 -6 47 -7 21 -5 22 39 22 25 0 81 7
123 16 42 9 84 18 92 19 8 1 32 9 54 18 21 10 42 17 46 17 4 0 15 9 26 21 25
27 7 39 -63 39 -28 0 -64 5 -80 11 -15 7 -41 13 -58 15 -16 2 -37 7 -45 10
-17 7 -31 9 -117 17 -34 3 -72 11 -83 17 l-20 11 0 -721z m200 150 c0 -5 -5
-10 -11 -10 -5 0 -7 5 -4 10 3 6 8 10 11 10 2 0 4 -4 4 -10z m-123 -732 c-3
-8 -6 -5 -6 6 -1 11 2 17 5 13 3 -3 4 -12 1 -19z"/>
<path d="M13715 7880 c3 -5 11 -10 16 -10 6 0 7 5 4 10 -3 6 -11 10 -16 10 -6
0 -7 -4 -4 -10z"/>
<path d="M14020 7860 c0 -5 6 -10 13 -10 7 0 8 -3 2 -8 -5 -4 -16 -18 -23 -32
-11 -22 -9 -21 12 5 29 34 33 55 11 55 -8 0 -15 -4 -15 -10z"/>
<path d="M4855 7759 c7 -11 35 -12 35 -1 0 4 -9 8 -20 9 -11 1 -18 -2 -15 -8z"/>
<path d="M13997 7763 c-10 -10 -9 -25 2 -19 5 3 8 0 7 -7 0 -6 4 -12 9 -12 6
0 8 6 7 15 -5 20 -17 32 -25 23z"/>
<path d="M14017 7682 c-22 -5 -12 -22 14 -22 14 0 19 -7 19 -29 0 -16 -5 -31
-11 -33 -17 -6 0 -34 22 -35 19 -2 20 2 15 40 -3 23 -5 47 -5 54 -1 16 -31 31
-54 25z"/>
<path d="M13968 7645 c6 -32 20 -32 18 0 0 14 -6 25 -12 25 -7 0 -9 -10 -6
-25z"/>
<path d="M9678 7568 c-25 -18 -8 -40 28 -36 21 2 29 8 29 23 0 24 -33 31 -57
13z"/>
<path d="M14058 7528 c-2 -13 -9 -22 -15 -21 -6 1 -17 -4 -23 -12 -7 -8 -9
-15 -5 -15 4 0 -5 -14 -19 -31 -17 -20 -24 -38 -21 -50 4 -12 -1 -23 -14 -31
-34 -21 -26 -38 16 -31 31 5 35 4 30 -10 -5 -13 -1 -17 14 -17 12 0 19 -5 16
-12 -2 -7 -12 -12 -21 -11 -10 0 -14 -2 -11 -5 4 -4 22 -7 41 -7 33 0 34 1 34
41 0 37 -3 41 -35 54 -19 7 -32 17 -30 21 3 4 -3 6 -13 5 -22 -1 -17 33 6 50
14 10 18 10 20 -4 1 -9 14 -22 27 -29 l25 -11 0 74 c0 41 -4 74 -9 74 -5 0
-11 -10 -13 -22z m5 -68 c-3 -12 -8 -19 -11 -16 -5 6 5 36 12 36 2 0 2 -9 -1
-20z m-3 -119 c0 -10 -30 -24 -37 -17 -3 3 -2 9 2 15 8 13 35 15 35 2z"/>
<path d="M14050 7397 c0 -8 7 -17 15 -21 8 -3 15 -2 15 3 0 5 -7 14 -15 21
-12 10 -15 10 -15 -3z"/>
<path d="M280 7311 c0 -6 4 -13 10 -16 6 -3 7 1 4 9 -7 18 -14 21 -14 7z"/>
<path d="M10594 7274 c3 -9 6 -22 6 -30 0 -8 5 -14 11 -14 7 0 9 10 7 25 -3
13 0 26 6 29 6 2 0 5 -13 5 -17 1 -22 -3 -17 -15z"/>
<path d="M221 7264 c0 -11 3 -14 6 -6 3 7 2 16 -1 19 -3 4 -6 -2 -5 -13z"/>
<path d="M10564 7213 c-3 -10 -12 -32 -19 -50 -12 -27 -12 -37 -1 -64 13 -31
14 -32 25 -11 8 16 9 28 1 41 -13 25 -13 31 3 31 29 1 37 15 24 43 -14 31 -25
34 -33 10z"/>
<path d="M14030 7216 c0 -22 19 -30 35 -16 22 18 18 30 -10 30 -15 0 -25 -6
-25 -14z"/>
<path d="M13965 7211 c-6 -11 9 -23 19 -14 9 9 7 23 -3 23 -6 0 -12 -4 -16 -9z"/>
<path d="M10641 7196 c-16 -19 -3 -46 22 -43 17 2 23 -5 27 -31 3 -18 10 -34
15 -35 15 -3 18 61 5 94 -12 29 -30 39 -30 18 0 -8 -4 -8 -14 0 -10 8 -16 8
-25 -3z"/>
<path d="M13993 7177 c3 -8 0 -20 -6 -26 -9 -10 -5 -11 18 -5 17 3 32 9 35 13
3 3 3 5 1 3 -2 -1 -16 5 -29 14 -21 14 -24 14 -19 1z"/>
<path d="M6413 7162 c-28 -13 -31 -18 -26 -50 l6 -34 -44 6 c-46 7 -45 4 8
-31 17 -12 17 -13 -2 -30 -11 -10 -28 -30 -38 -45 -9 -16 -26 -28 -37 -28 -11
0 -20 -4 -20 -10 0 -5 4 -10 10 -10 5 0 16 -12 24 -27 11 -23 11 -35 1 -68
-27 -86 -89 -190 -107 -179 -4 3 -8 -7 -8 -21 0 -14 4 -24 10 -20 5 3 18 0 29
-7 17 -10 23 -9 41 7 32 29 65 89 99 180 16 44 37 95 46 113 9 18 17 50 17 70
-1 38 17 92 30 92 11 0 21 66 13 89 -7 24 -8 24 -52 3z"/>
<path d="M6695 7127 c-10 -7 -25 -17 -32 -24 -7 -6 -23 -15 -35 -19 -27 -8
-48 -28 -48 -45 0 -8 9 -5 23 8 12 11 43 33 69 48 46 26 68 46 51 44 -4 0 -17
-6 -28 -12z"/>
<path d="M13947 7098 c-10 -24 -11 -37 -3 -47 16 -20 50 -30 59 -17 5 6 6 1 2
-11 -5 -17 -2 -23 9 -23 12 0 13 5 7 23 -7 17 -15 21 -37 19 -24 -3 -27 -1
-16 9 14 15 16 65 2 74 -5 3 -16 -9 -23 -27z"/>
<path d="M14010 7110 c0 -5 5 -10 10 -10 6 0 10 5 10 10 0 6 -4 10 -10 10 -5
0 -10 -4 -10 -10z"/>
<path d="M5966 7090 c-16 -5 -32 -7 -36 -5 -4 2 -22 0 -41 -6 -19 -5 -54 -12
-79 -15 -100 -11 -233 -57 -259 -88 -9 -10 -1 -12 38 -8 48 4 49 4 56 -27 4
-17 11 -31 16 -32 38 -5 89 8 89 22 0 5 -4 9 -10 9 -5 0 -10 4 -10 9 0 12 44
61 54 61 4 0 19 11 33 24 22 20 44 27 129 37 57 6 101 16 98 20 -6 11 -39 10
-78 -1z"/>
<path d="M6550 7030 c-9 -6 -10 -10 -3 -10 6 0 15 5 18 10 8 12 4 12 -15 0z"/>
<path d="M6506 6993 c-4 -5 -12 -9 -17 -9 -5 -1 -13 -2 -19 -3 -13 -1 -13 -31
-1 -31 14 0 68 49 55 50 -6 0 -14 -3 -18 -7z"/>
<path d="M6056 6952 c-7 -7 -42 -10 -174 -18 -82 -5 -109 -10 -97 -17 11 -6
59 -7 124 -2 169 13 173 13 178 -2 3 -7 16 -13 30 -13 13 0 22 4 19 9 -9 14
19 31 47 29 23 -2 25 -4 12 -18 -20 -22 -19 -30 4 -30 22 0 32 20 24 48 -4 17
-13 20 -83 20 -44 0 -81 -3 -84 -6z"/>
<path d="M7885 6950 c-3 -5 1 -10 10 -10 9 0 13 5 10 10 -3 6 -8 10 -10 10 -2
0 -7 -4 -10 -10z"/>
<path d="M13860 6940 c0 -5 5 -10 10 -10 6 0 10 5 10 10 0 6 -4 10 -10 10 -5
0 -10 -4 -10 -10z"/>
<path d="M13819 6895 c-13 -13 -31 -25 -39 -25 -13 0 -13 -1 0 -10 11 -7 20
-3 33 15 10 14 23 22 29 19 7 -4 6 -9 -1 -14 -8 -5 -9 -14 -2 -33 8 -20 6 -31
-9 -49 -11 -14 -15 -30 -11 -37 4 -7 6 -23 3 -37 -2 -14 0 -24 7 -24 10 0 15
12 13 31 -1 3 5 6 12 6 8 0 12 -12 11 -34 -1 -28 2 -33 22 -33 14 0 23 -6 23
-16 0 -9 9 -27 20 -41 13 -17 18 -33 14 -49 -4 -15 -2 -24 5 -24 19 0 12 -20
-6 -20 -11 -1 -4 -7 14 -15 18 -8 44 -25 58 -39 28 -28 45 -33 45 -13 0 8 4 7
10 -3 7 -11 10 3 10 46 0 49 -4 63 -17 68 -9 4 -19 2 -23 -4 -5 -8 -12 -7 -22
4 -9 8 -24 12 -37 9 -24 -6 -31 21 -7 30 14 6 11 47 -4 47 -4 0 -7 14 -8 32
-1 30 -18 52 -34 42 -15 -9 -8 24 8 40 9 9 11 16 4 16 -6 0 -8 5 -5 10 5 8 12
7 23 -2 11 -8 10 -4 -3 11 -14 17 -16 25 -8 28 9 3 7 11 -7 25 -10 11 -23 17
-29 14 -6 -4 -13 4 -17 19 -3 13 -10 22 -15 19 -5 -3 -9 0 -9 5 0 19 -27 12
-51 -14z m54 -120 c-3 -9 -8 -14 -10 -11 -3 3 -2 9 2 15 9 16 15 13 8 -4z"/>
<path d="M13821 6844 c0 -11 3 -14 6 -6 3 7 2 16 -1 19 -3 4 -6 -2 -5 -13z"/>
<path d="M13790 6820 c0 -11 5 -20 10 -20 6 0 10 9 10 20 0 11 -4 20 -10 20
-5 0 -10 -9 -10 -20z"/>
<path d="M10357 6808 c-6 -17 24 -68 40 -68 17 0 5 28 -18 40 -10 6 -16 17
-13 25 4 8 4 15 1 15 -3 0 -7 -6 -10 -12z"/>
<path d="M12930 6814 c1 -5 6 -18 13 -29 12 -20 23 -25 65 -30 13 -2 29 -9 37
-15 8 -6 19 -9 24 -6 5 4 12 2 16 -4 9 -15 42 -12 48 3 8 22 -5 35 -46 42 -20
4 -37 11 -37 15 0 4 -19 10 -42 12 -24 3 -51 8 -60 12 -10 5 -18 4 -18 0z"/>
<path d="M12771 6744 c0 -11 3 -14 6 -6 3 7 2 16 -1 19 -3 4 -6 -2 -5 -13z"/>
<path d="M13828 6683 c7 -3 16 -2 19 1 4 3 -2 6 -13 5 -11 0 -14 -3 -6 -6z"/>
<path d="M8040 6650 c0 -5 4 -10 9 -10 6 0 13 5 16 10 3 6 -1 10 -9 10 -9 0
-16 -4 -16 -10z"/>
<path d="M12730 6626 c0 -8 5 -18 10 -21 6 -3 10 3 10 14 0 12 -4 21 -10 21
-5 0 -10 -6 -10 -14z"/>
<path d="M8084 6615 c-3 -8 -4 -20 -2 -27 3 -7 7 -1 10 15 6 29 1 36 -8 12z"/>
<path d="M8080 6545 c0 -16 6 -25 15 -25 9 0 15 9 15 25 0 16 -6 25 -15 25 -9
0 -15 -9 -15 -25z"/>
<path d="M12765 6522 c-25 -5 -45 -22 -24 -21 7 1 25 4 39 8 28 8 15 20 -15
13z"/>
<path d="M12680 6480 c0 -5 7 -7 15 -4 8 4 15 8 15 10 0 2 -7 4 -15 4 -8 0
-15 -4 -15 -10z"/>
<path d="M2215 6440 c-3 -5 1 -10 10 -10 9 0 13 5 10 10 -3 6 -8 10 -10 10 -2
0 -7 -4 -10 -10z"/>
<path d="M7930 6404 c0 -8 5 -12 10 -9 6 3 10 10 10 16 0 5 -4 9 -10 9 -5 0
-10 -7 -10 -16z"/>
<path d="M6468 6398 c-16 -5 -28 -13 -28 -18 0 -4 -24 -19 -53 -33 -64 -30
-119 -75 -110 -89 3 -6 1 -8 -5 -5 -16 11 -41 -3 -35 -19 4 -10 -2 -17 -16
-21 -11 -3 -21 -9 -21 -13 0 -4 -12 -12 -26 -19 -14 -6 -24 -15 -22 -21 2 -5
49 -56 106 -114 86 -88 107 -105 132 -104 17 1 30 5 30 10 0 4 10 8 23 8 26 0
57 19 105 63 37 36 43 87 15 140 -9 18 -17 58 -19 90 -3 59 -20 124 -38 143
-8 8 -19 9 -38 2z"/>
<path d="M8442 6360 c0 -19 2 -27 5 -17 2 9 2 25 0 35 -3 9 -5 1 -5 -18z"/>
<path d="M1822 6200 c-7 -11 -19 -20 -27 -20 -18 0 -58 -25 -92 -56 -27 -25
-28 -30 -7 -38 18 -7 54 27 54 50 0 7 6 11 13 9 14 -5 80 52 75 66 -2 5 -9 0
-16 -11z"/>
<path d="M1190 6202 c-8 -3 -45 -24 -81 -48 -131 -85 -161 -135 -139 -239 10
-50 21 -68 68 -117 85 -90 109 -101 195 -96 50 3 87 13 122 30 62 32 75 46
122 133 31 57 43 71 66 73 24 3 40 22 18 22 -5 0 -11 11 -13 25 -3 13 -1 22 3
19 5 -3 9 2 9 12 0 12 -6 15 -21 11 -13 -3 -19 -1 -16 6 3 7 10 11 16 10 6 -2
11 4 11 12 0 8 -4 15 -10 15 -5 0 -10 5 -10 11 0 5 5 7 10 4 17 -11 11 0 -11
18 -20 18 -21 18 -14 -5 7 -22 6 -22 -19 4 -15 15 -25 30 -24 34 2 3 -13 13
-32 21 -35 16 -43 19 -67 21 -7 1 -13 5 -13 10 0 10 111 6 119 -5 8 -13 44
-25 36 -13 -18 29 -64 38 -185 38 -69 -1 -132 -3 -140 -6z m120 -22 c0 -5 -4
-10 -10 -10 -5 0 -10 5 -10 10 0 6 5 10 10 10 6 0 10 -4 10 -10z"/>
<path d="M6813 6168 c-13 -6 -23 -14 -23 -19 0 -4 -21 -19 -47 -35 -58 -33
-213 -161 -213 -175 0 -6 8 -8 18 -5 46 14 111 26 144 26 30 0 42 7 67 37 19
23 31 49 31 66 0 22 12 40 48 73 43 40 45 44 22 43 -14 0 -35 -5 -47 -11z"/>
<path d="M4611 6137 c-14 -18 13 -49 40 -45 33 5 33 21 -1 40 -22 12 -31 14
-39 5z"/>
<path d="M1550 6120 c0 -5 5 -10 10 -10 6 0 10 -7 10 -15 0 -8 7 -15 15 -15 9
0 18 -7 21 -15 6 -14 8 -13 19 2 20 27 1 55 -30 47 -15 -4 -25 -2 -25 5 0 6
-4 11 -10 11 -5 0 -10 -4 -10 -10z"/>
<path d="M114 5985 c-4 -10 -13 -13 -24 -10 -10 3 -21 1 -25 -5 -3 -6 -11 -8
-16 -5 -5 4 -18 3 -29 0 -19 -6 -20 -14 -18 -101 2 -52 6 -94 11 -94 4 0 7 9
7 19 0 14 7 19 26 17 21 -1 25 -5 21 -24 -3 -13 -1 -20 4 -15 15 15 15 58 1
55 -8 -1 -11 1 -9 5 3 5 -1 14 -9 21 -8 7 -14 8 -14 2 0 -5 -8 -10 -17 -9 -12
0 -13 2 -5 6 10 4 10 8 1 19 -10 12 -8 19 9 34 24 23 37 26 26 8 -4 -8 -3 -10
2 -5 5 5 10 13 10 18 3 22 5 23 14 9 8 -12 10 -11 10 8 0 12 5 22 11 22 5 0 7
-4 4 -10 -3 -5 1 -10 10 -10 9 0 13 5 10 10 -3 6 1 10 9 10 9 0 14 8 13 20 -2
24 -25 27 -33 5z"/>
<path d="M1571 5984 c-1 -25 24 -51 34 -34 3 5 2 10 -3 10 -5 0 -14 10 -20 23
-11 22 -11 22 -11 1z"/>
<path d="M2564 5989 c-10 -17 13 -36 27 -22 12 12 4 33 -11 33 -5 0 -12 -5
-16 -11z"/>
<path d="M2656 5984 c-4 -9 -4 -19 -1 -22 3 -3 5 0 5 6 0 7 7 12 15 12 8 0 15
5 15 10 0 16 -27 11 -34 -6z"/>
<path d="M6031 5981 c-4 -9 -16 -43 -25 -76 l-18 -61 28 -32 c16 -18 38 -32
49 -32 23 0 79 52 68 63 -3 4 -2 7 3 7 11 0 10 38 0 87 -10 45 -88 78 -105 44z"/>
<path d="M209 5960 c-1 -3 -1 -9 0 -13 2 -12 -52 -62 -64 -59 -5 2 -7 0 -3 -4
4 -4 3 -13 -4 -21 -8 -11 -7 -12 6 -7 9 3 16 11 16 18 0 6 9 0 20 -14 12 -15
20 -19 20 -11 0 8 3 12 6 8 14 -14 -7 -26 -26 -15 -14 9 -22 9 -34 -2 -19 -15
-28 -9 -32 23 -1 12 -3 25 -3 30 -2 13 -29 7 -35 -9 -3 -8 -2 -12 3 -9 11 6
20 -17 23 -62 2 -29 18 -38 18 -10 0 7 12 17 26 24 20 9 25 9 21 0 -5 -14 56
-38 70 -28 17 13 36 58 39 93 2 21 2 38 -1 38 -2 0 -15 -11 -28 -24 -17 -17
-28 -21 -35 -14 -12 12 2 44 28 65 13 10 12 12 -7 10 -13 -1 -24 -4 -24 -7z
m21 -140 c0 -5 -5 -10 -11 -10 -5 0 -7 5 -4 10 3 6 8 10 11 10 2 0 4 -4 4 -10z"/>
<path d="M248 5952 c-43 -52 -43 -55 -5 -32 20 12 37 26 37 30 0 18 -18 19
-32 2z"/>
<path d="M346 5951 c2 -2 -1 -10 -7 -18 -6 -7 -9 -22 -6 -33 3 -11 0 -20 -6
-20 -7 0 -6 -4 3 -9 8 -6 17 -8 21 -5 4 2 5 -5 2 -17 -4 -16 -8 -17 -14 -7 -7
10 -9 10 -9 0 0 -9 -6 -9 -24 3 -21 14 -24 14 -29 1 -8 -21 0 -24 55 -22 47 2
47 1 33 -20 -13 -21 -11 -34 7 -34 4 0 8 10 8 23 0 18 2 19 10 7 7 -10 10 -11
10 -2 0 8 12 12 35 10 41 -2 46 1 39 28 -4 16 -12 19 -34 16 -26 -4 -28 -1
-35 37 -4 22 -3 46 1 52 4 8 3 9 -4 5 -7 -4 -12 -4 -12 1 0 4 -11 8 -24 8 -13
0 -22 -2 -20 -4z"/>
<path d="M453 5938 c8 -22 -3 -30 -20 -16 -11 8 -12 7 -7 -6 3 -9 13 -16 21
-16 8 0 26 -9 40 -20 19 -15 21 -20 9 -20 -19 0 -22 -16 -4 -22 13 -5 48 21
48 34 0 5 -9 8 -20 8 -11 0 -26 12 -35 29 -16 33 -43 55 -32 29z"/>
<path d="M2388 5938 c-8 -67 1 -93 25 -69 8 8 8 11 -2 11 -7 0 -11 9 -9 23 2
16 9 21 23 19 11 -2 24 -9 28 -15 6 -8 7 -7 5 3 -6 20 -67 45 -70 28z"/>
<path d="M2640 5910 c0 -13 7 -20 20 -20 24 0 25 6 6 26 -20 19 -26 18 -26 -6z"/>
<path d="M2535 5910 c-3 -5 -1 -10 4 -10 6 0 11 5 11 10 0 6 -2 10 -4 10 -3 0
-8 -4 -11 -10z"/>
<path d="M174 5672 c-13 -10 -17 -42 -5 -42 18 0 -1 -39 -23 -47 -11 -4 -24
-6 -28 -5 -6 1 -5 -18 4 -83 2 -11 8 -23 13 -27 6 -5 4 -12 -5 -18 -10 -6 -11
-10 -2 -10 6 0 12 -7 12 -15 0 -10 -8 -13 -27 -10 -16 2 -47 7 -70 10 l-43 5
1 -1047 c0 -577 4 -1056 7 -1066 7 -16 9 -16 27 -3 20 15 20 15 -3 16 -14 0
-21 4 -16 11 3 6 15 8 26 6 16 -5 19 -2 14 16 -7 29 6 49 27 41 9 -3 14 -10
11 -15 -3 -5 0 -9 6 -9 8 0 9 7 5 18 -12 32 -10 37 18 40 15 2 28 10 28 18 1
8 3 19 4 24 1 6 3 14 4 18 0 5 12 14 25 22 25 13 25 40 0 40 -11 0 -12 4 -4
19 8 17 6 20 -20 26 -16 4 -33 4 -38 1 -4 -2 -14 0 -22 6 -12 8 -12 9 2 4 12
-3 18 0 18 9 0 9 6 12 15 9 11 -5 13 -2 9 10 -4 10 -1 16 7 16 11 0 11 2 0 9
-10 6 -15 29 -16 70 0 33 2 56 6 50 3 -6 11 -4 19 6 8 10 9 15 1 15 -7 0 -6
12 5 38 9 20 17 49 17 65 0 15 4 27 9 27 4 0 7 3 6 8 -1 4 4 18 11 31 8 14 9
21 2 17 -12 -8 -15 6 -4 18 4 4 8 17 9 29 1 12 5 30 9 40 4 9 3 17 -3 17 -5 0
-8 12 -6 26 3 33 -5 56 -18 48 -6 -4 -8 1 -4 14 4 11 2 23 -3 26 -5 4 -9 26
-7 49 1 23 -1 47 -5 52 -14 20 -27 83 -18 92 13 13 19 183 7 183 -7 0 -7 4 -1
13 14 17 16 107 4 137 l-10 25 0 -24 c-2 -53 -14 -7 -14 51 0 38 -7 82 -18
111 -22 54 -26 133 -7 121 8 -5 9 -2 5 10 -4 11 -1 19 11 23 9 4 19 9 22 12
13 16 50 30 50 20 0 -5 5 -7 11 -4 6 4 8 13 6 20 -5 11 7 13 46 6 5 0 6 -5 3
-10 -3 -4 5 -8 17 -7 16 1 22 7 21 23 0 12 4 21 10 20 6 -1 12 8 14 21 2 13 9
25 16 28 7 3 11 19 10 35 -2 23 3 33 16 36 11 3 24 20 30 37 6 18 20 42 31 54
11 12 16 22 12 22 -4 0 -1 5 7 10 13 8 13 10 -1 10 -9 0 -16 6 -17 13 -1 6 -6
35 -12 62 -6 28 -12 59 -14 70 -2 14 -13 22 -40 26 -35 6 -37 5 -32 -17 9 -34
-21 -32 -36 2 -9 20 -9 30 1 46 10 17 10 22 -6 33 -10 7 -21 11 -25 9 -5 -3
-8 0 -8 5 0 6 -6 11 -14 11 -8 0 -16 3 -19 8 -2 4 -2 1 -1 -5 2 -7 -3 -13 -11
-13 -8 0 -15 6 -15 14 0 16 -23 27 -36 18z m-36 -137 c-3 -3 -9 2 -12 12 -6
14 -5 15 5 6 7 -7 10 -15 7 -18z m277 -54 c3 -5 1 -12 -5 -16 -5 -3 -10 1 -10
9 0 18 6 21 15 7z m-330 -2020 c3 -5 2 -12 -3 -15 -5 -3 -9 1 -9 9 0 17 3 19
12 6z"/>
<path d="M7621 5654 c0 -11 3 -14 6 -6 3 7 2 16 -1 19 -3 4 -6 -2 -5 -13z"/>
<path d="M8121 5644 c0 -11 3 -14 6 -6 3 7 2 16 -1 19 -3 4 -6 -2 -5 -13z"/>
<path d="M6760 5222 c0 -5 -10 -10 -22 -10 -44 1 -96 -11 -144 -33 -125 -55
-153 -72 -204 -119 -77 -71 -248 -170 -318 -184 -36 -7 -122 -19 -144 -20 -10
0 -18 -3 -18 -6 0 -4 -7 -7 -15 -7 -8 0 -15 4 -15 8 0 5 -6 6 -14 3 -8 -3 -17
0 -21 5 -3 6 -11 9 -16 5 -5 -3 -17 0 -26 8 -13 10 -15 10 -9 0 4 -7 -9 -3
-29 8 -34 19 -55 19 -55 1 0 -5 21 -16 48 -26 26 -10 71 -29 100 -42 45 -21
65 -25 122 -21 57 3 76 9 112 34 35 25 54 31 100 32 l56 1 -1 -77 c-2 -66 1
-82 21 -109 15 -21 32 -33 47 -33 23 0 40 24 29 41 -11 19 39 8 57 -12 15 -17
25 -20 53 -15 20 4 42 14 50 22 12 12 19 12 34 3 16 -10 28 -7 70 16 28 15 53
34 57 42 3 9 -15 46 -40 86 -25 39 -45 79 -45 90 0 22 33 54 68 68 12 5 22 15
22 24 0 8 6 15 13 15 7 0 23 14 36 30 12 17 51 45 87 63 35 17 64 37 64 43 0
19 -31 46 -46 40 -8 -3 -21 -9 -29 -12 -11 -5 -14 0 -13 16 2 13 -3 25 -9 27
-7 3 -13 0 -13 -5z m-410 -331 c-10 -26 -15 -29 -31 -20 -26 14 -24 26 9 43
34 18 38 14 22 -23z m64 -69 c-4 -9 -8 -23 -10 -30 -5 -26 -14 -25 -14 1 0 29
23 74 28 57 2 -6 1 -18 -4 -28z m-55 6 c-1 -7 -5 -24 -9 -38 -7 -23 -8 -23 -9
-3 -1 12 -4 28 -7 37 -4 11 -1 16 10 16 9 0 16 -6 15 -12z"/>
<path d="M7885 5210 c-3 -5 1 -10 10 -10 9 0 13 5 10 10 -3 6 -8 10 -10 10 -2
0 -7 -4 -10 -10z"/>
<path d="M7806 5161 c-4 -5 3 -7 14 -4 23 6 26 13 6 13 -8 0 -17 -4 -20 -9z"/>
<path d="M14040 4395 c0 -8 6 -15 14 -15 8 0 17 -6 19 -12 3 -8 6 -6 6 4 1 10
-8 22 -19 28 -16 9 -20 8 -20 -5z"/>
<path d="M14034 4345 c-1 -14 2 -25 7 -25 5 0 9 -9 9 -20 0 -20 14 -27 24 -11
7 11 -21 81 -32 81 -4 0 -8 -11 -8 -25z"/>
<path d="M1193 4328 c2 -7 10 -12 17 -10 6 1 14 -7 17 -18 3 -11 12 -20 19
-20 8 0 13 -5 12 -11 -5 -18 19 -21 26 -3 4 11 0 18 -13 21 -11 3 -27 16 -36
29 -16 25 -50 34 -42 12z"/>
<path d="M1080 4295 c-16 -8 -26 -23 -27 -40 -1 -15 -9 -38 -18 -52 -17 -26
-16 -33 7 -37 20 -3 38 -16 38 -28 0 -6 -7 -5 -17 3 -16 12 -17 11 -3 -3 23
-25 67 -12 87 26 22 40 23 61 6 94 -8 15 -14 29 -13 32 4 12 -39 16 -60 5z"/>
<path d="M1233 4204 c-3 -9 3 -24 15 -36 l20 -20 7 21 c11 36 -28 70 -42 35z"/>
<path d="M1316 4191 c-4 -7 -5 -15 -2 -18 9 -9 19 4 14 18 -4 11 -6 11 -12 0z"/>
<path d="M1171 4158 c-5 -13 -6 -28 -4 -35 7 -18 36 -25 44 -11 6 10 12 8 23
-7 8 -11 18 -16 23 -12 4 5 0 14 -9 21 -10 7 -22 25 -27 39 -13 33 -39 35 -50
5z"/>
<path d="M1280 4131 c0 -10 7 -21 15 -25 10 -3 15 1 15 13 0 10 -7 21 -15 25
-10 3 -15 -1 -15 -13z"/>
<path d="M1257 4083 c-11 -10 -8 -20 8 -27 10 -4 15 1 15 14 0 20 -11 26 -23
13z"/>
<path d="M1082 4044 c-13 -22 -4 -53 25 -88 23 -27 23 -29 5 -45 -28 -25 -62
-77 -62 -95 0 -9 7 -19 15 -22 8 -4 15 -14 15 -23 -1 -14 -2 -14 -14 2 -16 21
-26 22 -26 1 0 -9 -8 -23 -18 -32 -10 -10 -13 -13 -6 -9 7 5 17 1 26 -11 7
-10 18 -21 25 -25 19 -12 103 -25 97 -16 -3 5 2 9 10 9 9 0 25 9 35 19 19 19
19 19 40 -5 12 -13 21 -29 21 -35 0 -5 5 -7 10 -4 6 4 7 12 3 18 -4 7 -6 22
-4 35 2 17 -3 22 -19 22 -11 0 -23 7 -26 15 -4 8 -10 12 -15 9 -16 -10 -9 13
8 27 11 10 14 10 9 2 -10 -18 22 -17 40 1 23 23 16 35 -16 30 -27 -5 -30 -2
-30 20 0 14 -4 28 -10 31 -5 3 -10 11 -10 17 0 6 6 6 15 -2 23 -19 29 -6 28
56 -1 39 2 54 10 51 7 -3 19 -8 27 -11 11 -5 16 0 17 14 2 22 -12 27 -20 8 -4
-9 -8 -10 -14 -3 -13 17 -85 43 -135 50 -37 5 -48 3 -56 -11z m92 -34 c-10 -4
-21 -6 -24 -3 -8 7 24 22 34 16 5 -4 1 -10 -10 -13z"/>
<path d="M1010 3991 c0 -5 7 -14 15 -21 13 -10 15 -9 15 9 0 12 -6 21 -15 21
-8 0 -15 -4 -15 -9z"/>
<path d="M1020 3915 c-14 -16 -5 -54 9 -39 14 15 23 54 13 54 -5 0 -15 -7 -22
-15z"/>
<path d="M1286 3785 c-3 -8 -1 -15 5 -15 6 0 9 -7 5 -15 -3 -8 2 -19 12 -24
16 -8 18 -4 19 30 2 32 -1 39 -16 39 -11 0 -21 -7 -25 -15z"/>
<path d="M3795 3670 c-3 -5 -1 -10 4 -10 6 0 11 5 11 10 0 6 -2 10 -4 10 -3 0
-8 -4 -11 -10z"/>
<path d="M1103 3651 c0 -11 5 -18 9 -15 4 3 5 11 1 19 -7 21 -12 19 -10 -4z"/>
<path d="M3671 3446 c-14 -16 -1 -58 15 -48 18 12 27 62 10 62 -7 0 -19 -6
-25 -14z"/>
<path d="M122 3406 c16 -31 18 -32 16 -4 -1 13 -8 25 -15 25 -9 0 -9 -5 -1
-21z"/>
<path d="M5010 3309 c11 -37 6 -49 -19 -49 -10 0 -18 -7 -18 -15 0 -19 3 -19
45 7 31 19 33 23 18 33 -9 7 -16 19 -16 28 0 9 -4 18 -9 22 -6 3 -6 -7 -1 -26z"/>
<path d="M5067 3323 c-4 -3 -7 -11 -7 -17 0 -6 5 -5 12 2 6 6 9 14 7 17 -3 3
-9 2 -12 -2z"/>
<path d="M35 3290 c-4 -11 -10 -18 -15 -15 -5 3 -11 1 -14 -4 -8 -13 15 -8 42
9 25 17 29 30 8 30 -8 0 -18 -9 -21 -20z"/>
<path d="M3360 3301 c0 -6 4 -11 9 -11 5 0 12 -8 15 -17 3 -11 4 -8 3 6 -2 24
-27 44 -27 22z"/>
<path d="M5076 3282 c-13 -22 3 -49 29 -49 14 0 25 3 25 8 0 5 -6 9 -13 9 -8
0 -18 10 -24 22 -6 15 -12 18 -17 10z"/>
<path d="M3407 3247 c-6 -16 2 -37 14 -37 6 0 7 5 3 11 -3 6 -1 15 6 19 9 5 8
9 -3 13 -9 3 -17 0 -20 -6z"/>
<path d="M3500 3231 c0 -6 4 -13 10 -16 6 -3 7 1 4 9 -7 18 -14 21 -14 7z"/>
<path d="M3553 3170 c1 -21 10 -18 13 5 1 8 -2 15 -6 15 -5 0 -8 -9 -7 -20z"/>
<path d="M3457 3159 c12 -12 24 -21 27 -18 2 2 -8 13 -22 23 l-27 19 22 -24z"/>
<path d="M28 3156 c-24 -18 -34 -88 -15 -105 13 -10 17 -7 28 23 13 36 29 48
29 22 0 -7 7 -19 15 -26 11 -10 18 -9 30 4 17 17 11 41 -7 30 -7 -5 -9 -2 -6
8 5 11 1 14 -15 11 -12 -2 -33 0 -47 6 l-25 10 25 1 c14 1 19 4 12 7 -6 2 -10
9 -6 14 7 12 2 11 -18 -5z"/>
<path d="M3534 3108 c-3 -4 2 -8 10 -8 9 0 19 0 23 -1 4 0 9 4 11 10 4 11 -37
11 -44 -1z"/>
<path d="M2735 3100 c-18 -8 -17 -9 8 -9 16 -1 26 3 22 9 -3 6 -7 10 -8 9 -1
0 -11 -4 -22 -9z"/>
<path d="M3595 3100 c-3 -5 -1 -10 4 -10 6 0 11 5 11 10 0 6 -2 10 -4 10 -3 0
-8 -4 -11 -10z"/>
<path d="M2830 3091 c0 -6 5 -13 10 -16 6 -3 10 1 10 9 0 9 -4 16 -10 16 -5 0
-10 -4 -10 -9z"/>
<path d="M2605 3060 c-3 -5 -1 -10 4 -10 6 0 11 5 11 10 0 6 -2 10 -4 10 -3 0
-8 -4 -11 -10z"/>
<path d="M0 3021 c0 -34 15 -42 23 -11 3 10 -1 24 -9 31 -11 9 -14 6 -14 -20z"/>
<path d="M70 2994 c0 -15 8 -33 18 -40 22 -17 29 -17 36 1 8 21 -3 45 -20 45
-8 0 -14 5 -14 10 0 6 -4 10 -10 10 -5 0 -10 -12 -10 -26z"/>
<path d="M2796 2985 c-21 -32 -4 -40 22 -10 16 18 17 25 7 29 -7 2 -21 -6 -29
-19z"/>
<path d="M2926 2996 c3 -8 12 -12 21 -9 12 5 12 7 1 14 -20 13 -28 11 -22 -5z"/>
<path d="M13302 2994 c-44 -30 -11 -114 45 -114 48 0 74 78 37 114 -20 20 -53
20 -82 0z"/>
<path d="M2835 2951 c3 -5 -4 -12 -15 -16 -20 -7 -28 -25 -10 -25 6 0 10 4 10
8 0 4 9 8 20 8 11 0 20 -4 20 -8 0 -4 5 -8 10 -8 6 0 3 11 -6 25 -15 23 -43
38 -29 16z"/>
<path d="M2743 2915 c4 -8 1 -17 -4 -21 -6 -3 -8 -15 -6 -26 4 -15 1 -18 -13
-13 -10 3 -21 1 -25 -5 -3 -5 -1 -10 4 -10 11 0 11 -21 -1 -30 -3 -3 -9 -21
-13 -41 -6 -33 -5 -37 19 -41 21 -4 26 -1 26 16 0 17 7 21 33 23 27 2 33 -1
33 -17 0 -21 -16 -28 -17 -7 0 6 -4 3 -8 -8 -5 -11 -5 -28 0 -37 12 -22 11
-41 0 -34 -5 3 -12 -1 -15 -10 -3 -8 -2 -12 3 -9 5 3 12 1 16 -5 4 -6 -5 -10
-19 -10 -15 0 -30 -8 -36 -19 -15 -29 -12 -38 5 -15 15 19 15 19 8 -1 -6 -18
-5 -18 10 -7 9 8 21 11 27 7 6 -3 22 -8 35 -11 20 -3 25 0 25 16 0 11 -5 20
-12 20 -9 0 -9 3 0 12 15 15 56 22 47 8 -3 -5 1 -10 10 -10 9 0 13 -4 10 -10
-3 -5 -1 -10 4 -10 6 0 11 5 11 12 0 6 3 8 6 5 4 -4 1 -13 -6 -22 -8 -10 -9
-15 -2 -15 6 0 10 -13 9 -29 -1 -16 -6 -27 -10 -24 -4 2 -5 13 -2 24 9 29 -10
23 -24 -8 -9 -19 -9 -28 -1 -33 8 -5 8 -14 -1 -33 -11 -25 -29 -28 -29 -6 0 6
4 7 10 4 6 -3 7 1 4 10 -4 9 -9 13 -12 10 -7 -6 -42 25 -42 37 0 5 5 6 10 3 6
-3 10 -2 10 4 0 16 -18 22 -23 9 -4 -10 -8 -10 -15 1 -7 10 -11 10 -17 1 -4
-7 -2 -16 5 -20 6 -4 12 -11 13 -16 1 -5 4 -8 7 -7 3 0 11 -5 18 -13 11 -12
10 -14 -3 -14 -8 0 -15 -5 -15 -11 0 -6 7 -9 15 -6 8 4 23 -5 35 -20 11 -14
20 -21 20 -14 0 6 9 11 21 11 12 0 19 5 16 13 -4 12 29 47 46 47 5 0 -1 -9
-14 -20 -13 -10 -18 -19 -11 -20 6 0 12 5 12 11 0 7 9 9 21 6 15 -4 25 2 39
26 10 17 17 34 14 39 -3 4 1 8 9 8 10 0 17 17 22 56 12 101 14 174 5 174 -6 0
-10 5 -10 11 0 7 -11 22 -24 34 l-25 23 -3 -26 c-4 -32 -24 -40 -31 -12 -3 12
-1 18 5 14 7 -4 8 5 3 26 -5 22 -4 30 3 26 6 -3 14 -1 18 5 4 7 3 9 -4 5 -6
-3 -13 -2 -17 4 -12 20 -33 9 -49 -25 -9 -19 -21 -35 -26 -35 -6 0 -10 -6 -10
-14 0 -9 -11 -12 -40 -10 -22 2 -40 -1 -40 -5 0 -5 -9 -11 -20 -14 -17 -4 -19
-1 -17 26 2 18 8 31 14 30 6 -1 9 6 6 16 -3 10 0 22 7 26 8 5 8 10 -1 21 -15
19 -43 18 -36 -1z m207 -19 c0 -3 -4 -8 -10 -11 -5 -3 -10 -1 -10 4 0 6 5 11
10 11 6 0 10 -2 10 -4z m-41 -99 c-2 -1 -12 -9 -21 -16 -15 -12 -18 -11 -18 3
0 10 8 16 22 16 12 0 19 -1 17 -3z m118 -71 c-10 -20 -15 -22 -40 -15 -17 5
-32 11 -35 13 -10 10 21 36 42 36 15 0 17 -3 7 -9 -8 -5 -9 -11 -3 -15 12 -7
24 21 16 37 -3 7 1 4 9 -6 12 -14 12 -23 4 -41z m-173 -47 c-6 -11 -24 -2 -24
11 0 5 7 7 15 4 8 -4 12 -10 9 -15z m100 -21 c-5 -7 -9 -16 -9 -20 0 -12 -15
-21 -15 -9 0 17 21 54 27 48 3 -3 1 -12 -3 -19z m63 -80 c-3 -8 -6 -5 -6 6 -1
11 2 17 5 13 3 -3 4 -12 1 -19z"/>
<path d="M2950 2926 c0 -2 7 -6 15 -10 8 -3 15 -1 15 4 0 6 -7 10 -15 10 -8 0
-15 -2 -15 -4z"/>
<path d="M2475 2879 c-4 -17 -4 -60 0 -95 6 -55 9 -62 21 -50 8 8 14 34 14 59
0 24 3 47 7 50 3 4 8 20 10 37 2 26 0 30 -21 30 -19 0 -26 -7 -31 -31z"/>
<path d="M120 2867 c0 -7 9 -13 20 -14 18 -2 18 0 6 13 -18 17 -26 18 -26 1z"/>
<path d="M2847 2866 c-8 -8 -17 -12 -21 -9 -3 4 -6 1 -6 -5 0 -21 19 -23 39
-3 11 11 16 23 11 26 -4 3 -15 -1 -23 -9z"/>
<path d="M13987 2793 c-9 -2 -15 -9 -12 -14 9 -14 22 -11 29 6 3 8 4 14 3 14
-1 -1 -10 -3 -20 -6z"/>
<path d="M14028 2783 c-10 -2 -18 -11 -18 -19 0 -11 4 -12 19 -4 21 11 37 31
24 29 -4 -1 -16 -3 -25 -6z"/>
<path d="M13940 2765 c-7 -8 -23 -15 -35 -15 -25 0 -49 -22 -37 -35 4 -4 -3
-4 -15 -1 -16 5 -23 2 -28 -14 -4 -12 -9 -19 -12 -16 -7 6 -28 -14 -36 -34 -3
-9 -6 -10 -6 -2 -1 6 -8 12 -17 12 -9 0 -12 -5 -8 -12 4 -7 3 -8 -4 -4 -20 12
-33 -3 -22 -25 9 -15 7 -19 -5 -19 -8 0 -15 5 -15 10 0 19 -17 10 -29 -17 -16
-34 5 -123 28 -123 9 0 12 -3 6 -8 -5 -4 -10 -25 -11 -46 -1 -41 -24 -69 -50
-59 -9 3 -14 -2 -14 -17 0 -11 -4 -18 -10 -15 -14 9 -12 -11 3 -27 6 -7 12
-19 13 -25 3 -33 -2 -31 77 -37 44 -2 52 -7 105 -64 51 -54 59 -59 69 -44 8
13 14 14 23 6 15 -15 58 4 66 30 6 17 7 18 16 3 5 -10 19 -17 31 -17 l21 0
-22 -16 c-29 -20 -28 -27 8 -41 17 -6 30 -15 29 -20 -1 -4 3 -19 9 -33 9 -20
11 -5 11 79 l1 104 -23 -21 c-25 -24 -46 -30 -29 -9 15 18 4 31 -43 53 -22 11
-45 30 -52 44 -7 14 -30 34 -53 44 -22 9 -40 22 -40 27 0 6 -5 7 -11 4 -5 -4
-28 5 -49 20 -44 31 -58 71 -38 107 21 37 60 78 70 72 5 -3 7 0 6 8 -2 7 4 12
13 10 9 -1 22 5 29 13 10 12 9 15 -6 15 -14 0 -10 7 16 30 19 16 40 29 46 30
6 0 17 7 24 15 7 8 17 12 24 8 6 -3 8 -3 4 2 -5 5 1 14 12 22 26 18 25 27 -4
46 -21 14 -26 14 -36 2z m-76 -606 c-6 -11 -24 -2 -24 11 0 5 7 7 15 4 8 -4
12 -10 9 -15z"/>
<path d="M2856 2594 c-9 -22 -8 -24 9 -18 8 4 15 12 15 20 0 19 -16 18 -24 -2z"/>
<path d="M14060 2590 c0 -5 5 -10 10 -10 6 0 10 5 10 10 0 6 -4 10 -10 10 -5
0 -10 -4 -10 -10z"/>
<path d="M2680 2500 c0 -5 5 -10 11 -10 5 0 7 5 4 10 -3 6 -8 10 -11 10 -2 0
-4 -4 -4 -10z"/>
<path d="M14065 2461 c-3 -5 -1 -12 5 -16 5 -3 10 1 10 9 0 18 -6 21 -15 7z"/>
<path d="M2823 2423 c-7 -3 -13 -9 -13 -15 0 -7 5 -6 14 1 11 10 15 8 19 -6 4
-16 5 -16 6 -1 1 19 -9 27 -26 21z"/>
<path d="M330 2409 c-12 -8 -11 -9 6 -4 31 8 47 -16 28 -43 -8 -12 -22 -22
-31 -22 -9 0 -13 -3 -9 -7 4 -5 13 -8 19 -8 6 0 14 -12 18 -28 4 -15 4 -25 1
-23 -4 2 -7 -7 -7 -20 0 -13 5 -26 12 -28 7 -3 10 1 6 10 -6 15 12 20 21 5 8
-13 27 -9 56 12 13 9 28 17 33 17 4 0 14 6 21 13 12 10 11 18 -6 50 -31 62
-128 105 -168 76z"/>
<path d="M0 2186 c0 -138 3 -186 13 -189 10 -4 10 -6 0 -6 -7 -1 -13 -11 -12
-23 0 -13 3 -18 5 -11 3 7 12 9 21 6 11 -4 14 -2 9 5 -4 6 -2 21 5 33 9 17 8
20 -3 13 -11 -6 -11 -5 1 9 7 9 20 17 27 17 7 0 11 6 8 14 -3 8 3 19 16 26 11
6 17 16 14 22 -5 7 -1 9 9 5 10 -3 17 -2 17 3 0 6 -4 10 -10 10 -5 0 -2 9 7
20 12 14 20 16 29 9 22 -18 30 -2 28 60 -2 79 -12 92 -52 67 -8 -4 -25 -11
-40 -15 -23 -6 -29 -3 -44 26 -10 18 -18 41 -18 52 0 10 -7 21 -15 25 -13 5
-15 -19 -15 -178z"/>
<path d="M110 2350 c-12 -8 -10 -10 8 -10 13 0 20 4 17 10 -7 12 -6 12 -25 0z"/>
<path d="M1039 2173 c-1 -4 -1 -12 0 -16 1 -5 -3 -6 -8 -2 -6 3 -21 -1 -34
-10 -19 -12 -28 -31 -37 -78 -6 -34 -16 -67 -22 -74 -5 -6 -6 -27 -3 -45 4
-18 8 -42 9 -54 1 -14 6 -19 18 -16 13 3 18 -6 24 -45 4 -26 7 -51 6 -55 -1
-5 3 -8 8 -8 6 0 9 -6 8 -12 -2 -7 7 -14 19 -16 15 -2 25 -13 30 -33 5 -16 11
-29 16 -29 4 0 16 0 26 0 13 0 21 8 23 23 2 15 9 21 21 19 9 -2 17 2 17 8 0 5
7 10 16 10 12 0 14 -3 6 -13 -6 -7 -15 -24 -21 -39 -8 -21 -7 -26 4 -24 8 1
18 5 21 9 4 4 14 7 23 7 8 0 29 10 47 22 48 33 87 155 81 254 -4 73 -11 94
-28 94 -10 0 -52 44 -97 99 -16 21 -29 25 -95 28 -43 2 -78 0 -78 -4z m151
-303 c0 -6 -7 -10 -15 -10 -8 0 -18 0 -22 -1 -4 0 -9 3 -10 8 -2 5 8 10 22 11
14 1 25 -3 25 -8z m-114 -117 c-10 -10 -19 5 -10 18 6 11 8 11 12 0 2 -7 1
-15 -2 -18z"/>
<path d="M461 2121 c-36 -45 -37 -51 -13 -51 11 0 25 -14 35 -36 15 -30 21
-35 40 -30 12 4 32 8 44 10 11 2 42 15 67 30 49 29 60 58 28 75 -20 11 -62 4
-62 -10 0 -20 -38 -7 -48 16 -7 16 -17 23 -27 19 -8 -3 -15 -1 -15 5 0 21 -19
11 -49 -28z"/>
<path d="M228 2036 c-21 -19 -38 -40 -38 -45 0 -6 -7 -11 -15 -11 -8 0 -15 -7
-15 -15 0 -8 5 -15 11 -15 8 0 8 -4 0 -14 -8 -9 -8 -16 -2 -20 5 -4 12 -2 15
3 3 5 14 7 24 5 9 -3 35 3 57 12 22 10 52 16 68 15 23 -2 27 1 27 23 0 17 -5
26 -16 26 -11 0 -14 5 -9 18 19 46 18 48 -27 50 -37 2 -48 -3 -80 -32z"/>
<path d="M8570 2010 c0 -5 5 -10 11 -10 5 0 7 5 4 10 -3 6 -8 10 -11 10 -2 0
-4 -4 -4 -10z"/>
<path d="M14069 1853 c-1 -5 -1 -11 -1 -15 1 -3 -5 -12 -14 -19 -12 -10 -17
-8 -29 7 -14 18 -14 18 -15 -9 0 -19 -7 -30 -22 -37 -62 -26 -78 -63 -51 -120
10 -22 24 -40 31 -40 12 0 14 -7 15 -47 0 -13 4 -20 10 -16 7 4 8 -10 4 -41
-6 -40 -4 -47 8 -42 9 3 15 0 15 -9 0 -8 6 -14 13 -13 7 2 12 -8 12 -24 0 -15
8 -35 18 -45 17 -17 18 -7 17 230 -1 136 -3 247 -6 247 -2 0 -5 -3 -5 -7z"/>
<path d="M7 1813 c-13 -12 -8 -268 5 -282 10 -11 10 -13 1 -7 -8 4 -13 1 -13
-7 0 -15 56 -44 66 -34 3 2 -6 17 -20 32 -25 27 -27 53 -3 38 20 -13 100 -31
114 -26 7 3 14 17 14 32 1 14 3 36 4 48 1 13 -4 28 -11 34 -8 6 -14 18 -14 27
0 26 -41 102 -55 102 -7 0 -20 11 -29 25 -16 24 -45 33 -59 18z"/>
<path d="M6494 1782 c-4 -9 -8 -19 -9 -22 -10 -39 -18 -51 -25 -40 -5 8 -13 9
-21 4 -21 -13 -42 -14 -56 -3 -7 6 -16 8 -21 5 -5 -3 -29 -7 -54 -10 -56 -5
-99 -26 -165 -83 -51 -43 -53 -47 -53 -93 0 -52 -16 -96 -75 -210 -7 -14 -15
-44 -19 -67 -5 -36 -3 -44 14 -53 18 -10 29 -5 73 32 29 24 57 49 63 57 10 12
13 11 23 -7 14 -26 14 -52 0 -52 -6 0 -9 -6 -6 -12 2 -7 -4 -22 -15 -34 -18
-21 -16 -54 4 -54 6 0 8 7 4 15 -3 8 -1 15 5 15 6 0 7 5 3 11 -5 8 -1 8 14 0
15 -8 21 -7 25 3 3 8 14 13 24 11 10 -2 21 -4 26 -4 4 -1 6 -7 5 -13 -2 -8 8
-13 26 -13 25 0 34 8 56 45 14 25 32 45 40 45 8 0 14 12 14 28 1 16 8 32 15
36 7 5 14 28 15 52 1 24 7 54 14 67 11 18 10 22 -3 22 -14 0 -17 10 -18 75 -1
50 3 56 23 50 17 -5 23 0 35 29 16 38 27 41 138 36 20 -1 37 1 37 4 0 9 -52
29 -72 28 -10 0 -18 2 -18 6 0 4 -16 7 -35 8 -44 1 -52 9 -33 31 19 22 29 61
18 68 -4 3 -11 -3 -16 -13z"/>
<path d="M6686 1724 c-3 -9 -6 -23 -6 -32 1 -15 3 -14 15 2 17 22 20 46 6 46
-5 0 -12 -7 -15 -16z"/>
<path d="M6175 1700 c-3 -6 1 -7 9 -4 18 7 21 14 7 14 -6 0 -13 -4 -16 -10z"/>
<path d="M6697 1653 c3 -7 9 -10 14 -7 14 8 11 21 -5 21 -8 0 -12 -6 -9 -14z"/>
<path d="M4860 1581 c0 -6 5 -13 10 -16 6 -3 10 1 10 9 0 9 -4 16 -10 16 -5 0
-10 -4 -10 -9z"/>
<path d="M6000 1556 c0 -9 30 -14 35 -6 4 6 -3 10 -14 10 -12 0 -21 -2 -21 -4z"/>
<path d="M4860 1515 c0 -8 7 -15 15 -15 8 0 15 7 15 15 0 8 -7 15 -15 15 -8 0
-15 -7 -15 -15z"/>
<path d="M4780 1499 c0 -4 7 -12 15 -19 8 -7 12 -17 9 -22 -4 -5 4 -8 17 -6
16 2 24 10 25 25 1 17 -5 22 -32 25 -19 2 -34 1 -34 -3z"/>
<path d="M140 1455 c7 -9 15 -13 17 -11 7 7 -7 26 -19 26 -6 0 -6 -6 2 -15z"/>
<path d="M1824 1326 c-1 -14 5 -27 14 -31 22 -8 27 2 11 22 -12 15 -12 16 5
10 16 -6 17 -5 6 8 -19 22 -35 18 -36 -9z"/>
<path d="M1760 1325 c7 -8 17 -12 22 -9 6 4 5 10 -3 15 -22 14 -33 10 -19 -6z"/>
<path d="M1801 1294 c0 -11 3 -14 6 -6 3 7 2 16 -1 19 -3 4 -6 -2 -5 -13z"/>
<path d="M3325 1250 c-3 -5 -2 -10 4 -10 5 0 13 5 16 10 3 6 2 10 -4 10 -5 0
-13 -4 -16 -10z"/>
<path d="M3288 1233 c7 -3 16 -2 19 1 4 3 -2 6 -13 5 -11 0 -14 -3 -6 -6z"/>
<path d="M3810 1225 c0 -21 38 -53 71 -60 16 -4 33 -14 39 -23 5 -9 9 -12 9
-7 0 15 -19 37 -65 73 -47 36 -54 38 -54 17z"/>
<path d="M3396 1222 c-3 -6 1 -13 10 -16 23 -9 28 -2 10 13 -8 7 -17 8 -20 3z"/>
<path d="M3580 1216 c0 -8 4 -17 8 -20 4 -2 8 4 8 15 0 10 -4 19 -8 19 -4 0
-8 -6 -8 -14z"/>
<path d="M6050 1181 c0 -5 5 -13 10 -16 6 -3 10 -2 10 4 0 5 -4 13 -10 16 -5
3 -10 2 -10 -4z"/>
<path d="M6080 1170 c0 -5 7 -10 15 -10 8 0 15 5 15 10 0 6 -7 10 -15 10 -8 0
-15 -4 -15 -10z"/>
<path d="M6235 1146 c-10 -7 -14 -15 -9 -19 5 -3 17 1 27 8 10 7 14 16 9 19
-5 3 -17 -1 -27 -8z"/>
<path d="M1530 910 c-9 -6 -10 -10 -3 -10 6 0 15 5 18 10 8 12 4 12 -15 0z"/>
<path d="M1395 900 c-3 -5 -1 -10 4 -10 6 0 11 5 11 10 0 6 -2 10 -4 10 -3 0
-8 -4 -11 -10z"/>
<path d="M1509 879 c-8 -5 -8 -9 0 -13 6 -4 11 -2 11 4 0 6 5 8 10 5 6 -4 0
-15 -15 -27 -14 -11 -23 -24 -19 -29 3 -5 9 -7 13 -4 10 5 51 -28 51 -42 0 -5
14 -22 30 -38 17 -16 30 -36 30 -46 0 -17 -26 -33 -40 -24 -4 3 -3 -6 3 -19 8
-16 17 -22 32 -18 17 5 18 3 7 -11 -8 -9 -21 -13 -30 -10 -9 3 -6 -3 8 -13 14
-10 28 -23 32 -28 4 -6 8 0 8 13 0 16 4 21 15 17 10 -3 15 1 15 13 0 10 7 24
15 31 12 10 15 10 15 -3 0 -8 -6 -18 -12 -20 -7 -3 -2 -6 12 -6 67 -1 121 -10
135 -21 8 -7 25 -10 40 -6 29 7 34 40 11 71 -13 18 -14 17 -10 -11 2 -24 -1
-30 -16 -30 -10 0 -17 4 -14 7 2 4 0 10 -5 13 -5 3 -7 15 -4 27 7 24 -17 45
-29 26 -5 -8 -8 -6 -8 5 0 16 -8 20 -72 33 -10 2 -21 -1 -24 -7 -7 -10 -30 13
-52 51 -12 20 -12 25 0 32 9 6 9 9 1 9 -6 0 -15 9 -18 20 -3 11 -11 20 -16 20
-6 0 -8 -4 -5 -8 3 -5 -1 -9 -9 -9 -8 0 -13 3 -12 6 1 3 -5 16 -14 28 -15 21
-47 27 -70 12z m161 -223 c0 -2 -7 -6 -15 -10 -8 -3 -15 -1 -15 4 0 6 7 10 15
10 8 0 15 -2 15 -4z"/>
<path d="M150 800 c-6 -10 -17 -17 -24 -14 -8 3 -17 1 -21 -5 -8 -15 -56 -14
-53 0 2 6 -3 14 -11 17 -10 3 -12 0 -8 -11 4 -11 2 -14 -8 -11 -8 3 -16 13
-18 22 -2 10 -5 -166 -6 -390 l-1 -408 167 0 168 1 -43 21 c-24 11 -51 33 -60
47 -9 14 -21 29 -26 33 -5 3 -10 52 -10 108 -1 79 2 103 14 110 12 8 12 10 1
10 -11 0 -11 3 -1 15 9 10 9 19 2 28 -13 16 17 132 50 189 14 24 31 61 38 83
7 22 16 44 21 49 12 13 11 57 -1 76 -5 8 -22 16 -37 17 -42 2 -62 8 -75 21
-18 18 -46 14 -58 -8z"/>
<path d="M3655 712 c2 -12 6 -26 9 -31 4 -5 0 -12 -6 -14 -8 -3 -6 -6 5 -6 14
-1 16 4 11 27 -8 33 -25 55 -19 24z"/>
<path d="M3285 700 c-3 -6 1 -7 9 -4 18 7 21 14 7 14 -6 0 -13 -4 -16 -10z"/>
<path d="M3605 691 c3 -6 10 -9 15 -6 4 3 11 0 13 -5 3 -6 4 -5 3 2 -1 7 -11
15 -21 16 -11 3 -15 0 -10 -7z"/>
<path d="M1435 660 c-3 -5 -1 -10 4 -10 6 0 11 5 11 10 0 6 -2 10 -4 10 -3 0
-8 -4 -11 -10z"/>
<path d="M3553 654 c15 -8 25 -19 22 -24 -3 -6 1 -7 10 -4 13 6 11 10 -12 25
-15 11 -32 19 -38 19 -5 -1 3 -8 18 -16z"/>
<path d="M1477 649 c7 -7 15 -10 18 -7 3 3 -2 9 -12 12 -14 6 -15 5 -6 -5z"/>
<path d="M3645 630 c-8 -13 3 -30 18 -29 9 0 9 2 0 6 -20 8 -15 23 8 23 11 0
17 -4 14 -10 -3 -5 4 -10 16 -10 18 0 19 2 9 15 -14 17 -56 20 -65 5z"/>
<path d="M3956 605 c3 -6 11 -12 18 -12 8 0 12 6 10 12 -3 6 -11 12 -18 12 -8
0 -12 -6 -10 -12z"/>
<path d="M1435 580 c1 -19 5 -34 9 -32 3 1 10 2 14 2 5 0 13 10 19 23 9 19 8
23 -8 24 -11 1 -17 -2 -14 -8 4 -5 2 -9 -4 -9 -5 0 -12 8 -14 18 -3 9 -4 1 -2
-18z"/>
<path d="M1495 580 c-4 -6 -1 -18 7 -27 7 -9 13 -19 13 -22 0 -8 38 -2 48 8 5
5 -3 6 -17 4 -19 -4 -26 -1 -26 11 0 9 -5 16 -11 16 -5 0 -7 5 -4 10 3 6 4 10
1 10 -3 0 -8 -5 -11 -10z"/>
<path d="M1520 581 c0 -5 5 -13 10 -16 6 -3 10 -2 10 4 0 5 -4 13 -10 16 -5 3
-10 2 -10 -4z"/>
<path d="M3672 569 c-9 -13 -7 -19 5 -23 9 -4 18 -4 21 -1 3 3 0 5 -7 5 -7 0
-9 5 -6 10 4 6 10 8 15 5 4 -3 10 2 13 9 8 21 -28 16 -41 -5z"/>
<path d="M3737 559 c5 -19 7 -19 15 -5 5 9 13 14 19 11 5 -4 9 -1 9 4 0 6 -11
11 -24 11 -20 0 -23 -4 -19 -21z"/>
<path d="M3630 557 c-18 -15 -24 -37 -9 -37 5 0 8 -4 5 -9 -3 -5 1 -14 9 -21
8 -7 15 -11 16 -9 0 2 2 12 4 22 5 27 15 34 15 11 0 -15 2 -16 9 -5 11 16 -17
44 -33 33 -5 -3 -7 2 -3 11 8 20 7 20 -13 4z"/>
<path d="M3543 536 c-25 -12 -32 -29 -8 -20 10 4 15 0 15 -15 0 -12 5 -21 11
-21 5 0 7 5 4 11 -4 6 1 17 11 25 18 14 17 15 -6 8 -17 -4 -22 -3 -15 4 6 5
19 12 30 15 l20 5 -20 0 c-11 0 -30 -5 -42 -12z"/>
<path d="M3820 540 c0 -5 5 -10 11 -10 5 0 7 -5 3 -12 -4 -7 -3 -8 5 -4 9 6 9
11 0 22 -14 17 -19 18 -19 4z"/>
<path d="M3858 495 c-3 -22 -9 -50 -13 -62 -6 -19 -4 -23 13 -23 12 0 24 5 27
10 4 6 12 7 18 3 7 -4 6 1 -2 10 -13 16 -14 16 -27 0 -13 -17 -13 -17 -14 3 0
11 5 25 11 31 8 8 8 20 2 40 l-10 28 -5 -40z"/>
<path d="M3757 513 c-4 -3 -7 -11 -7 -17 0 -6 5 -5 12 2 6 6 9 14 7 17 -3 3
-9 2 -12 -2z"/>
<path d="M3700 501 c-49 -26 -59 -29 -75 -27 -9 1 -20 9 -25 16 -9 14 -14 1
-22 -54 -3 -21 -28 -35 -28 -16 0 6 5 8 10 5 6 -3 10 2 10 11 0 16 -1 16 -18
1 -9 -8 -29 -20 -44 -26 -15 -5 -32 -19 -38 -30 -9 -17 -8 -20 6 -14 12 4 15
3 10 -5 -4 -7 -1 -12 8 -12 20 0 21 -16 1 -24 -8 -3 -14 -2 -12 2 1 4 -2 8 -8
9 -16 4 -12 -41 5 -50 9 -4 4 -5 -12 -2 -20 4 -28 1 -28 -9 0 -8 -8 -17 -17
-19 -15 -4 -16 -5 -2 -6 9 0 20 -11 24 -23 6 -20 8 -20 12 -6 4 15 8 16 26 6
29 -15 39 -31 24 -40 -9 -6 -9 -8 1 -8 6 0 12 -5 12 -12 0 -6 -3 -8 -7 -5 -3
4 -13 -3 -21 -14 -13 -19 -13 -23 2 -31 24 -13 20 -24 -18 -47 -38 -24 -46
-26 -46 -10 0 5 4 8 9 5 5 -3 11 1 15 9 7 19 -4 19 -29 1 -16 -12 -17 -16 -6
-30 8 -10 9 -16 3 -16 -6 0 -14 4 -17 10 -10 16 -23 12 -30 -10 -4 -11 -11
-18 -16 -15 -5 4 -9 1 -9 -4 0 -14 17 -14 25 -1 3 6 11 10 16 10 6 0 8 -4 5
-8 -3 -5 24 -9 59 -10 36 0 65 3 65 8 0 5 -9 7 -21 5 -15 -3 -19 0 -15 10 3 8
1 15 -4 15 -5 0 -7 7 -3 17 5 13 8 12 15 -8 l9 -23 13 24 c6 14 8 27 4 28 -4
2 -5 8 -2 13 3 6 0 17 -7 25 -12 14 -7 28 12 30 5 1 11 2 14 3 3 0 1 10 -5 21
-9 16 -8 18 5 14 8 -3 13 -10 10 -14 -3 -5 1 -11 7 -13 10 -4 10 -6 1 -6 -7
-1 -13 -5 -13 -11 0 -5 3 -9 8 -8 4 1 17 -3 28 -10 12 -6 24 -9 26 -6 3 2 11
-2 18 -11 10 -12 8 -16 -14 -25 -14 -5 -33 -7 -41 -4 -10 4 -15 0 -15 -10 0
-9 -7 -16 -15 -16 -8 0 -15 -5 -15 -11 0 -6 6 -9 13 -6 8 3 20 1 28 -4 11 -7
11 -9 -3 -9 -10 0 -18 -4 -18 -9 0 -5 27 -8 60 -8 52 1 60 3 60 20 0 16 -3 17
-14 8 -11 -9 -16 -9 -22 0 -5 8 -3 9 6 4 10 -6 12 2 8 38 -5 40 -3 47 18 58
13 7 24 16 24 21 0 5 -9 4 -19 -2 -14 -7 -22 -7 -27 1 -4 8 -9 7 -15 -2 -6
-10 -9 -11 -9 -1 0 6 -5 12 -11 12 -5 0 -7 -5 -3 -12 5 -7 3 -8 -5 -4 -7 5
-10 14 -7 22 3 7 -3 18 -12 24 -13 8 -13 10 -2 9 23 -3 50 12 50 27 0 8 4 14
10 14 5 0 7 -7 3 -15 -4 -13 1 -15 26 -10 26 4 31 2 31 -15 0 -11 5 -20 11
-20 5 0 7 5 3 12 -5 7 -1 9 13 6 27 -7 44 4 46 30 1 20 12 25 44 21 4 0 10 8
14 18 7 21 -10 53 -25 47 -6 -2 -18 0 -26 5 -12 8 -12 12 3 29 15 17 16 20 3
25 -8 3 -17 1 -20 -6 -2 -7 -5 -2 -5 10 -1 17 -6 21 -18 17 -14 -5 -15 -4 -4
4 10 7 21 6 38 -5 21 -14 23 -14 23 0 0 9 9 19 20 22 11 3 20 11 20 17 0 7 -5
7 -14 -1 -7 -6 -21 -9 -30 -5 -13 5 -15 2 -10 -12 6 -15 4 -17 -6 -7 -11 10
-11 15 0 27 7 9 17 13 22 10 6 -4 5 3 -1 15 -7 11 -15 20 -19 20 -24 -4 -42 3
-42 16 0 16 -7 18 -30 6z m16 -30 c-4 -6 -13 -8 -21 -4 -10 3 -15 -1 -15 -12
0 -12 6 -15 23 -10 18 5 19 4 7 -5 -12 -9 -9 -10 15 -6 29 6 29 6 10 -9 -28
-22 -46 -15 -62 23 -8 19 -10 32 -6 29 4 -2 17 -1 28 3 23 9 30 6 21 -9z m-86
-28 c0 -3 -7 -3 -15 1 -19 7 -15 -24 5 -49 20 -25 24 -56 5 -49 -18 7 -19 21
-2 27 6 3 -4 3 -23 0 -34 -6 -34 -5 -19 13 9 10 15 28 13 38 -1 11 -1 23 2 27
5 8 34 1 34 -8z m28 -18 c-3 -3 -9 2 -12 12 -6 14 -5 15 5 6 7 -7 10 -15 7
-18z m-101 -125 c1 -11 -2 -20 -8 -20 -10 0 -12 23 -2 33 9 9 9 10 10 -13z
m196 -11 c-8 -8 -16 -8 -30 0 -16 9 -14 10 12 11 21 0 26 -3 18 -11z m-223
-39 c0 -5 -4 -10 -10 -10 -5 0 -10 5 -10 10 0 6 5 10 10 10 6 0 10 -4 10 -10z
m35 -10 c-3 -4 5 -6 17 -3 19 4 20 3 8 -6 -15 -10 -50 -15 -50 -7 0 16 14 35
21 30 5 -3 7 -9 4 -14z m38 -197 c-7 -2 -13 -12 -13 -20 0 -9 -3 -14 -6 -10
-10 10 4 37 18 36 10 0 10 -2 1 -6z"/>
<path d="M3890 480 c0 -11 4 -20 9 -20 6 0 9 9 8 20 -1 11 -5 20 -9 20 -4 0
-8 -9 -8 -20z"/>
<path d="M3496 467 c5 -13 1 -20 -13 -23 -10 -3 -24 -14 -31 -24 -10 -16 -8
-18 8 -17 11 1 20 6 20 13 0 6 9 15 20 20 19 8 20 11 5 29 -13 17 -14 17 -9 2z"/>
<path d="M4460 432 c0 -21 57 -74 66 -61 7 12 -22 59 -37 59 -6 0 -7 5 -4 10
3 6 -1 10 -9 10 -9 0 -16 -8 -16 -18z"/>
<path d="M4525 420 c3 -5 8 -10 11 -10 2 0 4 5 4 10 0 6 -5 10 -11 10 -5 0 -7
-4 -4 -10z"/>
<path d="M3935 409 c-4 -6 -5 -12 -2 -15 2 -3 7 2 10 11 7 17 1 20 -8 4z"/>
<path d="M3875 394 c-10 -8 -13 -14 -7 -14 9 0 8 -7 -3 -24 -14 -21 -14 -24 2
-37 16 -12 17 -12 5 2 -10 13 -9 19 3 29 39 33 39 72 0 44z"/>
<path d="M3950 391 c0 -5 5 -13 10 -16 6 -3 10 -2 10 4 0 5 -4 13 -10 16 -5 3
-10 2 -10 -4z"/>
<path d="M4466 365 c-8 -23 -8 -25 7 -22 6 1 11 -4 10 -10 -2 -7 1 -13 7 -13
12 0 7 37 -7 51 -7 7 -12 5 -17 -6z"/>
<path d="M3805 360 c3 -5 1 -11 -5 -15 -16 -10 -12 -25 5 -19 8 4 15 2 15 -4
0 -5 7 -12 15 -16 13 -4 13 -2 5 14 -6 10 -9 24 -8 31 2 6 -5 13 -15 14 -9 2
-15 -1 -12 -5z"/>
<path d="M3896 345 c-11 -8 -15 -15 -9 -15 6 0 16 7 23 15 16 19 11 19 -14 0z"/>
<path d="M4520 350 c-8 -5 -12 -11 -10 -14 3 -2 14 2 24 10 22 15 10 19 -14 4z"/>
<path d="M4537 314 c-16 -22 -16 -23 -1 -17 13 5 16 2 11 -10 -3 -9 -2 -19 3
-22 6 -4 10 -1 10 5 0 6 4 8 10 5 5 -3 9 8 8 28 -1 39 -17 43 -41 11z"/>
<path d="M2418 303 c7 -3 16 -2 19 1 4 3 -2 6 -13 5 -11 0 -14 -3 -6 -6z"/>
<path d="M4420 300 c0 -5 5 -10 11 -10 5 0 7 5 4 10 -3 6 -8 10 -11 10 -2 0
-4 -4 -4 -10z"/>
<path d="M4457 270 c-8 -11 -18 -17 -22 -12 -5 4 2 -9 15 -28 13 -19 17 -30 9
-23 -18 15 -60 6 -53 -11 4 -11 -13 -16 -63 -16 -25 0 -31 -15 -10 -23 6 -3 3
-6 -8 -6 -17 -1 -18 -3 -5 -11 13 -9 13 -12 -2 -20 -14 -9 -15 -16 -8 -36 13
-33 13 -47 0 -39 -6 4 -8 10 -5 15 3 5 0 12 -6 16 -8 4 -9 3 -5 -4 4 -7 2 -12
-3 -12 -6 0 -11 -8 -11 -17 0 -15 2 -16 10 -3 8 12 10 9 10 -12 l0 -28 115 0
115 0 0 25 c0 23 4 25 35 23 19 -1 37 1 41 5 4 4 3 7 -3 7 -6 0 -8 12 -6 27 4
21 2 24 -6 13 -12 -18 -13 -16 -34 37 -15 38 -15 44 -1 58 8 8 19 15 24 15 5
0 7 7 4 15 -4 8 -10 12 -15 9 -5 -3 -7 -10 -4 -15 4 -5 1 -9 -5 -9 -7 0 -9 8
-5 21 5 13 3 19 -3 15 -5 -3 -21 5 -33 19 -29 30 -44 31 -62 5z m-2 -81 c11
-17 2 -18 -19 -3 -17 12 -17 14 -4 14 9 0 20 -5 23 -11z m-4 -127 c-5 -10 -17
-25 -26 -32 -13 -11 -19 -10 -36 9 -15 15 -17 22 -7 25 7 3 20 7 28 9 8 3 23
6 33 6 14 1 16 -3 8 -17z m-121 -42 c0 -5 -5 -10 -11 -10 -5 0 -7 5 -4 10 3 6
8 10 11 10 2 0 4 -4 4 -10z"/>
<path d="M2385 270 c4 -6 11 -8 16 -5 14 9 11 15 -7 15 -8 0 -12 -5 -9 -10z"/>
<path d="M2560 241 c0 -5 5 -13 10 -16 6 -3 10 -2 10 4 0 5 -4 13 -10 16 -5 3
-10 2 -10 -4z"/>
<path d="M3976 202 c-3 -6 0 -13 6 -16 7 -2 2 -4 -11 -3 -13 1 -26 -3 -28 -9
-4 -13 33 -12 47 2 5 5 5 15 1 23 -5 8 -11 9 -15 3z"/>
<path d="M2572 176 c-1 -15 1 -17 7 -7 5 7 15 17 22 22 10 6 8 8 -7 7 -12 -1
-21 -10 -22 -22z"/>
<path d="M4330 196 c0 -2 7 -6 15 -10 8 -3 15 -1 15 4 0 6 -7 10 -15 10 -8 0
-15 -2 -15 -4z"/>
<path d="M2466 177 c3 -10 9 -15 12 -12 3 3 0 11 -7 18 -10 9 -11 8 -5 -6z"/>
<path d="M2435 140 c4 -6 11 -8 16 -5 14 9 11 15 -7 15 -8 0 -12 -5 -9 -10z"/>
<path d="M2572 142 c-8 -6 -2 -9 18 -9 20 0 26 3 18 9 -7 4 -15 8 -18 8 -3 0
-11 -4 -18 -8z"/>
<path d="M3695 139 c-4 -6 -3 -15 3 -21 6 -6 11 -4 15 6 7 18 -9 31 -18 15z"/>
<path d="M7135 141 c-3 -5 -2 -12 3 -15 5 -3 9 1 9 9 0 17 -3 19 -12 6z"/>
<path d="M4206 105 c4 -8 7 -15 9 -15 2 0 5 7 9 15 3 9 0 15 -9 15 -9 0 -12
-6 -9 -15z"/>
<path d="M4265 90 c-3 -5 -1 -10 4 -10 6 0 11 5 11 10 0 6 -2 10 -4 10 -3 0
-8 -4 -11 -10z"/>
<path d="M3650 70 c0 -9 4 -20 9 -26 5 -5 11 -18 13 -29 3 -14 6 -11 9 12 3
18 3 31 1 28 -3 -3 -11 3 -18 13 -11 14 -13 15 -14 2z"/>
<path d="M2645 60 c-3 -6 1 -7 9 -4 18 7 21 14 7 14 -6 0 -13 -4 -16 -10z"/>
<path d="M2689 63 c0 -4 -2 -18 -3 -31 -2 -13 2 -26 7 -29 6 -3 7 -1 3 5 -5 8
2 12 19 12 15 0 24 4 20 10 -3 6 1 10 9 10 9 0 16 4 16 9 0 5 -9 7 -20 4 -11
-3 -20 -10 -20 -15 0 -5 -5 -6 -10 -3 -6 4 -8 10 -5 15 3 5 1 11 -5 15 -5 3
-10 3 -11 -2z"/>
<path d="M2847 43 c-4 -3 -7 -11 -7 -17 0 -6 5 -5 12 2 6 6 9 14 7 17 -3 3 -9
2 -12 -2z"/>
<path d="M3345 40 c-3 -5 1 -10 10 -10 9 0 13 5 10 10 -3 6 -8 10 -10 10 -2 0
-7 -4 -10 -10z"/>
<path d="M1391 26 c-9 -10 -9 -16 -1 -21 6 -4 14 -4 17 -1 4 3 1 6 -6 6 -7 0
-9 5 -6 11 4 6 13 8 21 5 8 -3 14 -1 14 4 0 15 -26 12 -39 -4z"/>
<path d="M2881 14 c0 -11 3 -14 6 -6 3 7 2 16 -1 19 -3 4 -6 -2 -5 -13z"/>
<path d="M1205 10 c3 -5 11 -10 16 -10 6 0 7 5 4 10 -3 6 -11 10 -16 10 -6 0
-7 -4 -4 -10z"/>
<path d="M2745 10 c-3 -5 -1 -10 4 -10 6 0 11 5 11 10 0 6 -2 10 -4 10 -3 0
-8 -4 -11 -10z"/>
</g>
</svg>
